<svg version="1.1" id="Layer_1" xmlns="http://www.w3.org/2000/svg" xmlns:xlink="http://www.w3.org/1999/xlink" x="0px" y="0px"
	 width="100%" viewBox="0 0 1280 380" enable-background="new 0 0 1280 380" xml:space="preserve">
<path fill="#FEFEFE" opacity="1.000000" stroke="none" 
	d="
M862.000000,381.000000 
	C574.666687,381.000000 287.833405,381.000000 1.000077,381.000000 
	C1.000051,254.333389 1.000051,127.666763 1.000026,1.000111 
	C427.666595,1.000074 854.333191,1.000074 1280.999756,1.000037 
	C1280.999878,127.666557 1280.999878,254.333115 1281.000000,380.999817 
	C1141.500000,381.000000 1002.000000,381.000000 862.000000,381.000000 
M215.273514,172.650436 
	C213.799225,178.412323 214.830734,179.790009 220.866150,179.794388 
	C251.194901,179.816360 281.523865,179.858047 311.852234,179.746216 
	C316.147217,179.730392 318.222809,180.779968 318.205994,185.607803 
	C318.069122,224.934738 318.093323,264.262451 318.181366,303.589661 
	C318.190582,307.699432 316.634033,309.177856 312.569855,309.173218 
	C250.245987,309.102417 187.921982,309.148376 125.598091,309.090454 
	C116.755157,309.082245 110.922401,303.198944 110.738701,294.357910 
	C110.596794,287.528503 110.696953,280.693909 110.704506,273.861603 
	C110.712082,267.000793 110.957977,266.733246 117.659393,266.730011 
	C140.989212,266.718689 164.319427,266.658020 187.648499,266.790131 
	C191.607666,266.812531 193.684448,265.473145 194.921051,261.629974 
	C198.792145,249.598984 202.998993,237.676239 207.045761,225.701416 
	C209.288315,219.065445 208.371582,217.848419 201.195297,217.846802 
	C173.532791,217.840591 145.870300,217.847916 118.207794,217.841293 
	C110.941566,217.839554 110.704643,217.590118 110.704025,210.131866 
	C110.700928,172.637512 110.702110,135.143143 110.703064,97.648788 
	C110.703270,89.425255 110.759331,89.365608 119.159866,89.365044 
	C162.486679,89.362122 205.813660,89.308945 249.140045,89.444443 
	C253.598022,89.458389 256.020355,88.404236 257.449432,83.754562 
	C261.112274,71.837067 265.419495,60.117977 269.447540,48.312210 
	C271.594482,42.019741 270.724487,40.684055 264.304749,40.681866 
	C211.146072,40.663731 157.987167,40.613590 104.829376,40.830589 
	C101.894859,40.842567 98.312263,42.445312 96.152710,44.491261 
	C86.236732,53.885593 76.771454,63.753605 67.032913,73.338318 
	C63.352295,76.960793 61.757988,81.118118 61.762379,86.286789 
	C61.830700,166.774628 61.791191,247.262543 61.825912,327.750427 
	C61.833591,345.554626 74.213913,358.017731 91.944160,358.027588 
	C168.599274,358.070190 245.254425,358.027374 321.909515,358.089508 
	C327.073364,358.093689 331.258209,356.464172 334.875275,352.801453 
	C344.359436,343.197540 354.085724,333.827728 363.384338,324.049622 
	C365.338043,321.995148 366.900970,318.594910 366.910278,315.808929 
	C367.109711,256.151917 367.036377,196.494034 367.116150,136.836456 
	C367.121796,132.625717 365.767578,130.829391 361.356598,130.839142 
	C319.029846,130.932678 276.702698,130.932739 234.375992,130.826111 
	C230.716629,130.816895 229.031647,132.216812 227.933823,135.563812 
	C223.942749,147.731674 219.724396,159.824997 215.273514,172.650436 
M1077.829712,65.130432 
	C1067.581909,65.130432 1057.334229,65.130432 1047.131592,65.130432 
	C1047.131592,110.794556 1047.131592,155.715317 1047.131592,200.676010 
	C1056.232422,200.676010 1065.090332,200.676010 1074.256592,200.676010 
	C1074.256592,169.075531 1074.256592,137.867416 1074.256592,105.254158 
	C1089.107666,130.167892 1103.257568,153.905396 1117.733643,178.190201 
	C1132.181396,153.958130 1146.329590,130.228455 1160.477905,106.498779 
	C1160.838135,106.599312 1161.198364,106.699852 1161.558594,106.800385 
	C1161.558594,138.148209 1161.558594,169.496048 1161.558594,200.728973 
	C1170.886108,200.728973 1179.629272,200.728973 1188.466431,200.728973 
	C1188.466431,155.484940 1188.466431,110.580276 1188.466431,65.126030 
	C1178.783691,65.126030 1169.334839,65.300232 1159.898560,65.032349 
	C1156.557983,64.937515 1154.885132,66.154213 1153.283813,68.912979 
	C1142.514282,87.467224 1131.579468,105.925682 1120.684082,124.406868 
	C1119.779297,125.941704 1118.770630,127.415329 1117.638428,129.185913 
	C1105.642700,108.859016 1093.913208,88.941994 1082.110474,69.068527 
	C1081.238647,67.600655 1079.838867,66.446335 1077.829712,65.130432 
M765.263611,84.318253 
	C757.333618,73.076477 746.004700,66.967163 732.774048,66.179924 
	C713.524719,65.034576 694.181458,65.465027 674.877991,65.253006 
	C674.620850,65.250175 674.359558,65.633232 674.086731,65.838524 
	C674.086731,110.755333 674.086731,155.672150 674.086731,200.803070 
	C683.194519,200.803070 692.088989,200.803070 701.518555,200.803070 
	C701.518555,177.307617 701.518555,154.068481 701.518555,130.829330 
	C701.777832,130.805649 702.037109,130.781982 702.296387,130.758301 
	C704.275940,137.514160 706.255432,144.270020 708.231628,151.014481 
	C709.937866,151.014481 711.125854,151.180771 712.251526,150.986267 
	C717.722473,150.040955 720.788574,152.317780 723.518921,157.219650 
	C731.121216,170.868423 739.355103,184.167969 747.485779,197.516327 
	C748.385803,198.993942 750.200195,200.863144 751.642273,200.908569 
	C761.227112,201.210526 770.826050,201.065033 781.215454,201.065033 
	C769.825989,182.340622 758.840210,164.279892 747.857056,146.223495 
	C772.507080,131.372849 779.266052,107.664139 765.263611,84.318253 
M1000.112000,121.297653 
	C993.104980,103.688782 986.008911,86.114326 979.175903,68.438171 
	C977.993591,65.379669 976.432739,64.497368 973.336060,64.617844 
	C967.345520,64.850906 961.328430,64.905792 955.344116,64.603416 
	C951.775208,64.423088 950.195618,65.653938 948.872437,69.001808 
	C932.129578,111.365700 915.203552,153.657196 898.338013,195.972672 
	C897.738953,197.475754 897.282837,199.035812 896.590881,201.065796 
	C905.917725,201.065796 914.720764,201.189377 923.511963,200.922684 
	C924.726501,200.885834 926.445801,199.139160 926.971558,197.805603 
	C929.836487,190.538589 932.374146,183.143265 935.075623,175.810959 
	C938.251343,167.191605 941.479431,158.591553 945.132202,148.781448 
	C947.306763,156.312317 949.343445,162.422226 950.768921,168.671555 
	C951.571777,172.191193 953.189148,172.999924 956.574951,172.924500 
	C966.902405,172.694427 977.243347,173.023285 987.568176,172.740631 
	C991.085449,172.644363 992.493164,173.874466 993.538025,177.043900 
	C995.826904,183.986649 998.458313,190.821365 1001.138000,197.626129 
	C1001.656860,198.943741 1003.005127,200.881561 1004.016846,200.910278 
	C1013.063660,201.167053 1022.120850,201.059952 1031.924561,201.059952 
	C1021.193054,174.146500 1010.799011,148.079468 1000.112000,121.297653 
M798.766785,157.499939 
	C798.766785,171.921326 798.766785,186.342712 798.766785,200.696533 
	C828.293396,200.696533 857.177429,200.696533 885.850342,200.696533 
	C885.850342,192.578552 885.850342,184.832031 885.850342,176.716248 
	C865.900391,176.716248 846.305115,176.716248 826.505798,176.716248 
	C826.505798,165.270432 826.505798,154.211151 826.505798,142.554382 
	C842.808044,142.554382 858.829407,142.554382 875.183655,142.554382 
	C873.953979,137.231308 872.895874,132.546555 871.787292,127.873779 
	C869.507935,118.266060 869.496826,118.268684 859.367249,118.268639 
	C854.701843,118.268616 850.036377,118.268639 845.370972,118.268639 
	C839.106079,118.268639 832.841125,118.268631 826.538940,118.268631 
	C826.538940,108.369530 826.538940,99.137634 826.538940,89.479553 
	C846.468994,89.479553 866.081726,89.479553 885.846924,89.479553 
	C885.846924,81.176689 885.846924,73.310455 885.846924,65.390076 
	C856.735779,65.390076 827.985901,65.390076 799.335266,65.390076 
	C799.103577,65.941856 798.871948,66.236443 798.871521,66.531403 
	C798.825317,96.520897 798.796509,126.510406 798.766785,157.499939 
M456.503937,196.016006 
	C467.534119,200.595627 478.980682,203.171341 490.957855,203.355728 
	C503.211792,203.544388 514.713318,201.273331 525.099426,194.252884 
	C545.235779,180.641724 552.140198,143.505432 521.787964,128.136581 
	C515.435974,124.920280 508.664246,122.517433 502.032776,119.873039 
	C495.556519,117.290543 488.831848,115.259872 482.547699,112.286430 
	C476.017944,109.196793 474.007965,104.825523 474.983337,98.611534 
	C475.827209,93.235031 479.838135,89.363533 486.136932,87.932411 
	C495.330200,85.843658 504.043030,87.847755 512.378784,91.552780 
	C517.481628,93.820877 522.273132,96.789551 527.425049,99.562317 
	C531.406433,93.071556 535.359924,86.626282 539.391968,80.052864 
	C520.480957,63.908367 499.151581,59.564747 475.930206,64.960739 
	C459.477936,68.783775 448.868774,81.836639 447.203644,98.196602 
	C445.475647,115.174217 452.874878,128.711960 468.679993,136.352448 
	C474.480682,139.156616 480.851105,140.758087 486.862274,143.157135 
	C493.934570,145.979691 501.113312,148.663559 507.837524,152.186935 
	C512.625977,154.695969 515.381348,159.214417 514.573975,165.078323 
	C513.713440,171.328552 510.173737,175.771988 504.153870,177.113785 
	C498.894958,178.285919 493.262085,178.912109 487.929565,178.392456 
	C475.888245,177.219040 464.842102,172.546661 453.884308,166.426834 
	C450.098755,174.040115 446.444916,181.388535 442.561310,189.198990 
	C447.209015,191.505249 451.496826,193.632919 456.503937,196.016006 
M308.412292,16.292685 
	C307.272949,17.821928 305.677155,19.189121 305.067535,20.906410 
	C300.731842,33.119804 296.579742,45.398632 292.407440,57.669647 
	C290.455139,63.411545 291.563690,65.008011 297.533600,65.033043 
	C307.021790,65.072823 316.510284,65.022217 325.998535,65.050949 
	C336.838135,65.083763 342.642151,70.829575 342.727844,81.693062 
	C342.797424,90.514999 342.849762,99.339798 342.694977,108.159546 
	C342.625854,112.097969 343.934113,114.004364 348.131439,113.963234 
	C360.781372,113.839264 373.433746,113.854439 386.084015,113.958054 
	C389.874664,113.989105 391.630463,112.412483 391.625641,108.649170 
	C391.596466,85.844124 391.958496,63.030937 391.451202,40.236912 
	C391.124939,25.576813 380.462891,16.147083 365.692535,16.126087 
	C346.882599,16.099350 328.072571,16.142530 308.412292,16.292685 
M618.226196,171.500061 
	C618.226196,144.365997 618.226196,117.231949 618.226196,89.453835 
	C630.606934,89.453835 642.653992,89.453835 654.755554,89.453835 
	C654.755554,81.058372 654.755554,73.310936 654.755554,65.447067 
	C621.101562,65.447067 587.711548,65.447067 554.255005,65.447067 
	C554.255005,73.528221 554.255005,81.290634 554.255005,89.696259 
	C566.533936,89.696259 578.576599,89.696259 590.938232,89.696259 
	C590.938232,127.109230 590.938232,163.876709 590.938232,200.750183 
	C600.179260,200.750183 609.072144,200.750183 618.226257,200.750183 
	C618.226257,191.126205 618.226257,181.813141 618.226196,171.500061 
M656.810974,224.600632 
	C655.557495,223.145386 654.381836,220.522415 653.037292,220.432755 
	C646.478516,219.995499 639.874695,220.234879 633.497437,220.234879 
	C633.497437,249.512787 633.497437,278.059540 633.497437,306.527344 
	C639.311523,306.527344 644.724182,306.527344 650.593140,306.527344 
	C650.593140,286.672180 650.593140,267.130249 650.593140,247.588348 
	C650.889160,247.503311 651.185181,247.418274 651.481201,247.333252 
	C660.343689,262.156158 669.206177,276.979095 678.295532,292.181458 
	C687.484863,276.781067 696.297302,262.012421 705.109680,247.243790 
	C705.428223,247.321854 705.746704,247.399902 706.065247,247.477966 
	C706.065247,267.135010 706.065247,286.792023 706.065247,306.619232 
	C712.038879,306.619232 717.455017,306.619232 723.117432,306.619232 
	C723.117432,277.813232 723.117432,249.235229 723.117432,220.181671 
	C717.767029,220.181671 712.629150,220.464020 707.539551,220.089661 
	C703.676758,219.805557 701.620728,221.180359 699.730469,224.519608 
	C692.894592,236.595505 685.705688,248.471558 678.284424,261.042572 
	C670.977905,248.686188 664.054932,236.978378 656.810974,224.600632 
M1094.051880,306.675110 
	C1094.339355,305.614532 1094.876099,304.554382 1094.877930,303.493317 
	C1094.923828,276.676727 1094.915283,249.860031 1094.904419,223.043350 
	C1094.904175,222.252426 1094.776978,221.461563 1094.697998,220.543930 
	C1088.895752,220.543930 1083.370239,220.543930 1077.255371,220.543930 
	C1077.255371,238.886688 1077.255371,256.870667 1077.255371,275.954590 
	C1075.500732,273.936584 1074.537842,272.856415 1073.604370,271.751587 
	C1061.137085,256.996735 1048.233276,242.579803 1036.411865,227.324310 
	C1031.192627,220.589020 1025.588989,218.955444 1017.849426,220.668808 
	C1017.849426,249.262329 1017.849426,277.936035 1017.849426,306.531860 
	C1023.685547,306.531860 1029.109741,306.531860 1035.042847,306.531860 
	C1035.042847,288.715881 1035.042847,271.210632 1035.042847,252.666794 
	C1048.401123,268.313599 1061.418945,282.785553 1073.466064,298.024902 
	C1078.870239,304.861145 1084.504028,308.497314 1094.051880,306.675110 
M532.225037,266.251068 
	C534.391479,298.702118 561.665100,313.880188 588.664490,306.401489 
	C612.116333,299.905396 624.439087,274.479858 616.968140,248.980133 
	C610.233337,225.993042 586.575928,213.665268 562.528259,220.611694 
	C543.424500,226.130020 532.192017,242.685608 532.225037,266.251068 
M1130.430542,277.854218 
	C1129.775879,276.328094 1129.014648,274.838165 1128.483032,273.270325 
	C1121.361816,252.268768 1136.748535,232.408112 1157.587280,236.288086 
	C1163.732544,237.432266 1169.435791,240.949387 1175.879883,243.600464 
	C1178.626709,240.153702 1181.906982,236.037735 1185.156982,231.959625 
	C1175.481934,222.147324 1163.169189,217.870300 1148.466064,219.027832 
	C1127.994019,220.639526 1111.725464,237.020859 1109.212646,258.553558 
	C1106.697876,280.101379 1119.156372,300.735046 1138.731567,306.253479 
	C1155.885864,311.089417 1171.651123,307.321259 1185.753174,296.544128 
	C1186.726440,295.800323 1187.950195,294.545868 1187.964478,293.513794 
	C1188.122314,282.092285 1188.063721,270.667816 1188.063721,259.225555 
	C1175.901123,259.225555 1164.325928,259.225555 1152.669922,259.225555 
	C1152.669922,264.216919 1152.669922,268.929932 1152.669922,274.055176 
	C1158.974854,274.055176 1164.901001,274.055176 1171.111084,274.055176 
	C1171.111084,276.117554 1171.110107,277.756775 1171.111450,279.395966 
	C1171.116821,286.500916 1170.371216,287.578796 1163.891602,289.829895 
	C1150.856201,294.358490 1138.308350,290.047546 1130.430542,277.854218 
M817.426697,235.505524 
	C817.498657,248.988525 817.023438,262.502167 817.776489,275.947021 
	C818.791809,294.075745 828.756104,304.757019 846.570374,307.548706 
	C851.767029,308.363037 857.251648,308.353699 862.485779,307.728882 
	C879.999512,305.638306 890.683716,295.053009 892.181824,277.514099 
	C893.128113,266.435822 892.631409,255.231659 892.717773,244.083466 
	C892.778076,236.302338 892.729431,228.520355 892.729431,220.584946 
	C886.548706,220.584946 880.870422,220.584946 875.009216,220.584946 
	C875.009216,236.967163 875.041748,252.944061 874.978516,268.920593 
	C874.967407,271.732483 874.826477,274.596649 874.280518,277.344269 
	C872.196960,287.830841 865.699707,292.929443 854.880249,292.826965 
	C844.005554,292.723969 837.723877,287.589691 835.770569,277.000793 
	C835.291443,274.403290 835.118347,271.717377 835.106995,269.070831 
	C835.044983,254.586533 835.077209,240.101852 835.077087,225.617294 
	C835.077087,223.878906 835.077087,222.140533 835.077087,220.421738 
	C828.837708,220.421738 823.405579,220.421738 817.426941,220.421738 
	C817.426941,225.272034 817.426941,229.890320 817.426697,235.505524 
M743.085754,226.631927 
	C743.085754,253.217331 743.085754,279.802734 743.085754,306.558960 
	C749.199768,306.558960 754.764038,306.558960 760.976318,306.558960 
	C760.976318,297.093658 760.976318,287.899109 760.976318,278.068481 
	C767.275574,278.068481 772.974854,278.542084 778.568970,277.976257 
	C793.105652,276.506073 804.047119,265.101410 804.903748,251.112671 
	C805.789612,236.647186 796.874939,223.814682 782.138794,221.583740 
	C769.456360,219.663712 756.397461,220.229736 743.085999,219.679214 
	C743.085999,222.405991 743.085999,224.039551 743.085754,226.631927 
M516.239990,282.856598 
	C514.462585,280.109863 513.310364,282.323120 512.123718,283.432770 
	C505.791504,289.354065 498.218475,291.680908 489.687378,291.280121 
	C474.782349,290.579926 463.524078,277.786285 464.181854,262.305817 
	C464.863525,246.263428 476.427307,235.203079 491.846405,235.767792 
	C500.001282,236.066467 506.866638,239.576736 513.478943,244.518265 
	C516.896729,240.222229 520.174866,236.101685 523.412659,232.031921 
	C507.096680,214.494797 476.127075,214.515427 459.276794,231.761353 
	C441.328217,250.131348 442.298737,281.208466 461.345001,297.989044 
	C478.700806,313.280243 511.261414,310.944366 525.112854,293.263275 
	C522.351501,289.997223 519.562622,286.698517 516.239990,282.856598 
M944.941040,267.500000 
	C944.941040,257.064545 944.941040,246.629120 944.941040,235.761093 
	C952.901489,235.761093 960.316895,235.761093 967.902710,235.761093 
	C967.902710,230.420837 967.902710,225.524185 967.902710,220.424530 
	C946.555847,220.424530 925.494507,220.424530 904.198730,220.424530 
	C904.198730,225.570816 904.198730,230.468033 904.198730,235.989563 
	C911.969849,235.989563 919.515198,235.989563 927.395142,235.989563 
	C927.395142,259.864685 927.395142,283.116791 927.395142,306.589539 
	C933.331360,306.589539 938.900085,306.589539 944.941040,306.589539 
	C944.941040,293.720978 944.941040,281.110474 944.941040,267.500000 
M980.113281,261.500000 
	C980.113281,276.443909 980.113281,291.387817 980.113281,306.424011 
	C986.305664,306.424011 991.992737,306.424011 997.598145,306.424011 
	C997.598145,277.563416 997.598145,249.134293 997.598145,220.605560 
	C991.649292,220.605560 985.967285,220.605560 980.113281,220.605560 
	C980.113281,234.191101 980.113281,247.345551 980.113281,261.500000 
z"/>
<path fill="#F43240" opacity="1.000000" stroke="none" 
	d="
M215.432632,172.298431 
	C219.724396,159.824997 223.942749,147.731674 227.933823,135.563812 
	C229.031647,132.216812 230.716629,130.816895 234.375992,130.826111 
	C276.702698,130.932739 319.029846,130.932678 361.356598,130.839142 
	C365.767578,130.829391 367.121796,132.625717 367.116150,136.836456 
	C367.036377,196.494034 367.109711,256.151917 366.910278,315.808929 
	C366.900970,318.594910 365.338043,321.995148 363.384338,324.049622 
	C354.085724,333.827728 344.359436,343.197540 334.875275,352.801453 
	C331.258209,356.464172 327.073364,358.093689 321.909515,358.089508 
	C245.254425,358.027374 168.599274,358.070190 91.944160,358.027588 
	C74.213913,358.017731 61.833591,345.554626 61.825912,327.750427 
	C61.791191,247.262543 61.830700,166.774628 61.762379,86.286789 
	C61.757988,81.118118 63.352295,76.960793 67.032913,73.338318 
	C76.771454,63.753605 86.236732,53.885593 96.152710,44.491261 
	C98.312263,42.445312 101.894859,40.842567 104.829376,40.830589 
	C157.987167,40.613590 211.146072,40.663731 264.304749,40.681866 
	C270.724487,40.684055 271.594482,42.019741 269.447540,48.312210 
	C265.419495,60.117977 261.112274,71.837067 257.449432,83.754562 
	C256.020355,88.404236 253.598022,89.458389 249.140045,89.444443 
	C205.813660,89.308945 162.486679,89.362122 119.159866,89.365044 
	C110.759331,89.365608 110.703270,89.425255 110.703064,97.648788 
	C110.702110,135.143143 110.700928,172.637512 110.704025,210.131866 
	C110.704643,217.590118 110.941566,217.839554 118.207794,217.841293 
	C145.870300,217.847916 173.532791,217.840591 201.195297,217.846802 
	C208.371582,217.848419 209.288315,219.065445 207.045761,225.701416 
	C202.998993,237.676239 198.792145,249.598984 194.921051,261.629974 
	C193.684448,265.473145 191.607666,266.812531 187.648499,266.790131 
	C164.319427,266.658020 140.989212,266.718689 117.659393,266.730011 
	C110.957977,266.733246 110.712082,267.000793 110.704506,273.861603 
	C110.696953,280.693909 110.596794,287.528503 110.738701,294.357910 
	C110.922401,303.198944 116.755157,309.082245 125.598091,309.090454 
	C187.921982,309.148376 250.245987,309.102417 312.569855,309.173218 
	C316.634033,309.177856 318.190582,307.699432 318.181366,303.589661 
	C318.093323,264.262451 318.069122,224.934738 318.205994,185.607803 
	C318.222809,180.779968 316.147217,179.730392 311.852234,179.746216 
	C281.523865,179.858047 251.194901,179.816360 220.866150,179.794388 
	C214.830734,179.790009 213.799225,178.412323 215.432632,172.298431 
z"/>
<path fill="#403D3C" opacity="1.000000" stroke="none" 
	d="
M1078.257080,65.138351 
	C1079.838867,66.446335 1081.238647,67.600655 1082.110474,69.068527 
	C1093.913208,88.941994 1105.642700,108.859016 1117.638428,129.185913 
	C1118.770630,127.415329 1119.779297,125.941704 1120.684082,124.406868 
	C1131.579468,105.925682 1142.514282,87.467224 1153.283813,68.912979 
	C1154.885132,66.154213 1156.557983,64.937515 1159.898560,65.032349 
	C1169.334839,65.300232 1178.783691,65.126030 1188.466431,65.126030 
	C1188.466431,110.580276 1188.466431,155.484940 1188.466431,200.728973 
	C1179.629272,200.728973 1170.886108,200.728973 1161.558594,200.728973 
	C1161.558594,169.496048 1161.558594,138.148209 1161.558594,106.800385 
	C1161.198364,106.699852 1160.838135,106.599312 1160.477905,106.498779 
	C1146.329590,130.228455 1132.181396,153.958130 1117.733643,178.190201 
	C1103.257568,153.905396 1089.107666,130.167892 1074.256592,105.254158 
	C1074.256592,137.867416 1074.256592,169.075531 1074.256592,200.676010 
	C1065.090332,200.676010 1056.232422,200.676010 1047.131592,200.676010 
	C1047.131592,155.715317 1047.131592,110.794556 1047.131592,65.130432 
	C1057.334229,65.130432 1067.581909,65.130432 1078.257080,65.138351 
z"/>
<path fill="#3E3B3A" opacity="1.000000" stroke="none" 
	d="
M765.485962,84.604980 
	C779.266052,107.664139 772.507080,131.372849 747.857056,146.223495 
	C758.840210,164.279892 769.825989,182.340622 781.215454,201.065033 
	C770.826050,201.065033 761.227112,201.210526 751.642273,200.908569 
	C750.200195,200.863144 748.385803,198.993942 747.485779,197.516327 
	C739.355103,184.167969 731.121216,170.868423 723.518921,157.219650 
	C720.788574,152.317780 717.722473,150.040955 712.251526,150.986267 
	C711.125854,151.180771 709.937866,151.014481 708.231628,151.014481 
	C706.255432,144.270020 704.275940,137.514160 702.296387,130.758301 
	C702.037109,130.781982 701.777832,130.805649 701.518555,130.829330 
	C701.518555,154.068481 701.518555,177.307617 701.518555,200.803070 
	C692.088989,200.803070 683.194519,200.803070 674.086731,200.803070 
	C674.086731,155.672150 674.086731,110.755333 674.093445,65.837357 
	C674.359558,65.633232 674.620850,65.250175 674.877991,65.253006 
	C694.181458,65.465027 713.524719,65.034576 732.774048,66.179924 
	C746.004700,66.967163 757.333618,73.076477 765.485962,84.604980 
M743.484619,101.276360 
	C740.970215,94.957802 735.954224,91.024529 729.609863,90.473557 
	C720.431763,89.676491 711.132935,90.269524 701.616028,90.269524 
	C701.616028,102.222008 701.616028,114.439346 701.616028,127.097633 
	C709.568481,127.097633 717.354065,127.437798 725.099243,127.023483 
	C739.181091,126.270195 746.800171,115.838943 743.484619,101.276360 
z"/>
<path fill="#3F3C3B" opacity="1.000000" stroke="none" 
	d="
M1000.258484,121.655037 
	C1010.799011,148.079468 1021.193054,174.146500 1031.924561,201.059952 
	C1022.120850,201.059952 1013.063660,201.167053 1004.016846,200.910278 
	C1003.005127,200.881561 1001.656860,198.943741 1001.138000,197.626129 
	C998.458313,190.821365 995.826904,183.986649 993.538025,177.043900 
	C992.493164,173.874466 991.085449,172.644363 987.568176,172.740631 
	C977.243347,173.023285 966.902405,172.694427 956.574951,172.924500 
	C953.189148,172.999924 951.571777,172.191193 950.768921,168.671555 
	C949.343445,162.422226 947.306763,156.312317 945.132202,148.781448 
	C941.479431,158.591553 938.251343,167.191605 935.075623,175.810959 
	C932.374146,183.143265 929.836487,190.538589 926.971558,197.805603 
	C926.445801,199.139160 924.726501,200.885834 923.511963,200.922684 
	C914.720764,201.189377 905.917725,201.065796 896.590881,201.065796 
	C897.282837,199.035812 897.738953,197.475754 898.338013,195.972672 
	C915.203552,153.657196 932.129578,111.365700 948.872437,69.001808 
	C950.195618,65.653938 951.775208,64.423088 955.344116,64.603416 
	C961.328430,64.905792 967.345520,64.850906 973.336060,64.617844 
	C976.432739,64.497368 977.993591,65.379669 979.175903,68.438171 
	C986.008911,86.114326 993.104980,103.688782 1000.258484,121.655037 
M970.803040,114.717796 
	C968.706787,109.142250 966.610596,103.566711 964.080811,96.838036 
	C957.564209,114.632538 951.504333,131.179916 945.329956,148.039856 
	C958.240051,148.039856 970.412964,148.039856 982.970337,148.039856 
	C978.884338,136.902603 974.951965,126.183960 970.803040,114.717796 
z"/>
<path fill="#3E3C3B" opacity="1.000000" stroke="none" 
	d="
M798.766724,156.999939 
	C798.796509,126.510406 798.825317,96.520897 798.871521,66.531403 
	C798.871948,66.236443 799.103577,65.941856 799.335266,65.390076 
	C827.985901,65.390076 856.735779,65.390076 885.846924,65.390076 
	C885.846924,73.310455 885.846924,81.176689 885.846924,89.479553 
	C866.081726,89.479553 846.468994,89.479553 826.538940,89.479553 
	C826.538940,99.137634 826.538940,108.369530 826.538940,118.268631 
	C832.841125,118.268631 839.106079,118.268639 845.370972,118.268639 
	C850.036377,118.268639 854.701843,118.268616 859.367249,118.268639 
	C869.496826,118.268684 869.507935,118.266060 871.787292,127.873779 
	C872.895874,132.546555 873.953979,137.231308 875.183655,142.554382 
	C858.829407,142.554382 842.808044,142.554382 826.505798,142.554382 
	C826.505798,154.211151 826.505798,165.270432 826.505798,176.716248 
	C846.305115,176.716248 865.900391,176.716248 885.850342,176.716248 
	C885.850342,184.832031 885.850342,192.578552 885.850342,200.696533 
	C857.177429,200.696533 828.293396,200.696533 798.766785,200.696533 
	C798.766785,186.342712 798.766785,171.921326 798.766724,156.999939 
z"/>
<path fill="#3F3C3B" opacity="1.000000" stroke="none" 
	d="
M456.144287,195.888306 
	C451.496826,193.632919 447.209015,191.505249 442.561310,189.198990 
	C446.444916,181.388535 450.098755,174.040115 453.884308,166.426834 
	C464.842102,172.546661 475.888245,177.219040 487.929565,178.392456 
	C493.262085,178.912109 498.894958,178.285919 504.153870,177.113785 
	C510.173737,175.771988 513.713440,171.328552 514.573975,165.078323 
	C515.381348,159.214417 512.625977,154.695969 507.837524,152.186935 
	C501.113312,148.663559 493.934570,145.979691 486.862274,143.157135 
	C480.851105,140.758087 474.480682,139.156616 468.679993,136.352448 
	C452.874878,128.711960 445.475647,115.174217 447.203644,98.196602 
	C448.868774,81.836639 459.477936,68.783775 475.930206,64.960739 
	C499.151581,59.564747 520.480957,63.908367 539.391968,80.052864 
	C535.359924,86.626282 531.406433,93.071556 527.425049,99.562317 
	C522.273132,96.789551 517.481628,93.820877 512.378784,91.552780 
	C504.043030,87.847755 495.330200,85.843658 486.136932,87.932411 
	C479.838135,89.363533 475.827209,93.235031 474.983337,98.611534 
	C474.007965,104.825523 476.017944,109.196793 482.547699,112.286430 
	C488.831848,115.259872 495.556519,117.290543 502.032776,119.873039 
	C508.664246,122.517433 515.435974,124.920280 521.787964,128.136581 
	C552.140198,143.505432 545.235779,180.641724 525.099426,194.252884 
	C514.713318,201.273331 503.211792,203.544388 490.957855,203.355728 
	C478.980682,203.171341 467.534119,200.595627 456.144287,195.888306 
z"/>
<path fill="#F39C13" opacity="1.000000" stroke="none" 
	d="
M308.837463,16.224129 
	C328.072571,16.142530 346.882599,16.099350 365.692535,16.126087 
	C380.462891,16.147083 391.124939,25.576813 391.451202,40.236912 
	C391.958496,63.030937 391.596466,85.844124 391.625641,108.649170 
	C391.630463,112.412483 389.874664,113.989105 386.084015,113.958054 
	C373.433746,113.854439 360.781372,113.839264 348.131439,113.963234 
	C343.934113,114.004364 342.625854,112.097969 342.694977,108.159546 
	C342.849762,99.339798 342.797424,90.514999 342.727844,81.693062 
	C342.642151,70.829575 336.838135,65.083763 325.998535,65.050949 
	C316.510284,65.022217 307.021790,65.072823 297.533600,65.033043 
	C291.563690,65.008011 290.455139,63.411545 292.407440,57.669647 
	C296.579742,45.398632 300.731842,33.119804 305.067535,20.906410 
	C305.677155,19.189121 307.272949,17.821928 308.837463,16.224129 
z"/>
<path fill="#3E3B3A" opacity="1.000000" stroke="none" 
	d="
M618.226196,172.000061 
	C618.226257,181.813141 618.226257,191.126205 618.226257,200.750183 
	C609.072144,200.750183 600.179260,200.750183 590.938232,200.750183 
	C590.938232,163.876709 590.938232,127.109230 590.938232,89.696259 
	C578.576599,89.696259 566.533936,89.696259 554.255005,89.696259 
	C554.255005,81.290634 554.255005,73.528221 554.255005,65.447067 
	C587.711548,65.447067 621.101562,65.447067 654.755554,65.447067 
	C654.755554,73.310936 654.755554,81.058372 654.755554,89.453835 
	C642.653992,89.453835 630.606934,89.453835 618.226196,89.453835 
	C618.226196,117.231949 618.226196,144.365997 618.226196,172.000061 
z"/>
<path fill="#413E3D" opacity="1.000000" stroke="none" 
	d="
M656.971436,224.935608 
	C664.054932,236.978378 670.977905,248.686188 678.284424,261.042572 
	C685.705688,248.471558 692.894592,236.595505 699.730469,224.519608 
	C701.620728,221.180359 703.676758,219.805557 707.539551,220.089661 
	C712.629150,220.464020 717.767029,220.181671 723.117432,220.181671 
	C723.117432,249.235229 723.117432,277.813232 723.117432,306.619232 
	C717.455017,306.619232 712.038879,306.619232 706.065247,306.619232 
	C706.065247,286.792023 706.065247,267.135010 706.065247,247.477966 
	C705.746704,247.399902 705.428223,247.321854 705.109680,247.243790 
	C696.297302,262.012421 687.484863,276.781067 678.295532,292.181458 
	C669.206177,276.979095 660.343689,262.156158 651.481201,247.333252 
	C651.185181,247.418274 650.889160,247.503311 650.593140,247.588348 
	C650.593140,267.130249 650.593140,286.672180 650.593140,306.527344 
	C644.724182,306.527344 639.311523,306.527344 633.497437,306.527344 
	C633.497437,278.059540 633.497437,249.512787 633.497437,220.234879 
	C639.874695,220.234879 646.478516,219.995499 653.037292,220.432755 
	C654.381836,220.522415 655.557495,223.145386 656.971436,224.935608 
z"/>
<path fill="#423F3E" opacity="1.000000" stroke="none" 
	d="
M1093.593750,306.749756 
	C1084.504028,308.497314 1078.870239,304.861145 1073.466064,298.024902 
	C1061.418945,282.785553 1048.401123,268.313599 1035.042847,252.666794 
	C1035.042847,271.210632 1035.042847,288.715881 1035.042847,306.531860 
	C1029.109741,306.531860 1023.685547,306.531860 1017.849426,306.531860 
	C1017.849426,277.936035 1017.849426,249.262329 1017.849426,220.668808 
	C1025.588989,218.955444 1031.192627,220.589020 1036.411865,227.324310 
	C1048.233276,242.579803 1061.137085,256.996735 1073.604370,271.751587 
	C1074.537842,272.856415 1075.500732,273.936584 1077.255371,275.954590 
	C1077.255371,256.870667 1077.255371,238.886688 1077.255371,220.543930 
	C1083.370239,220.543930 1088.895752,220.543930 1094.697998,220.543930 
	C1094.776978,221.461563 1094.904175,222.252426 1094.904419,223.043350 
	C1094.915283,249.860031 1094.923828,276.676727 1094.877930,303.493317 
	C1094.876099,304.554382 1094.339355,305.614532 1093.593750,306.749756 
z"/>
<path fill="#403D3C" opacity="1.000000" stroke="none" 
	d="
M532.204956,265.792969 
	C532.192017,242.685608 543.424500,226.130020 562.528259,220.611694 
	C586.575928,213.665268 610.233337,225.993042 616.968140,248.980133 
	C624.439087,274.479858 612.116333,299.905396 588.664490,306.401489 
	C561.665100,313.880188 534.391479,298.702118 532.204956,265.792969 
M593.331238,243.187088 
	C587.776794,237.463486 581.058594,234.629120 573.079285,235.602386 
	C554.749390,237.838165 544.472778,258.973236 553.091431,276.788818 
	C557.592590,286.093140 565.062012,291.587250 575.545959,291.629883 
	C585.816284,291.671661 593.401123,286.434540 597.806885,277.321167 
	C603.553833,265.433594 602.147583,254.086700 593.331238,243.187088 
z"/>
<path fill="#403D3C" opacity="1.000000" stroke="none" 
	d="
M1130.637207,278.165131 
	C1138.308350,290.047546 1150.856201,294.358490 1163.891602,289.829895 
	C1170.371216,287.578796 1171.116821,286.500916 1171.111450,279.395966 
	C1171.110107,277.756775 1171.111084,276.117554 1171.111084,274.055176 
	C1164.901001,274.055176 1158.974854,274.055176 1152.669922,274.055176 
	C1152.669922,268.929932 1152.669922,264.216919 1152.669922,259.225555 
	C1164.325928,259.225555 1175.901123,259.225555 1188.063721,259.225555 
	C1188.063721,270.667816 1188.122314,282.092285 1187.964478,293.513794 
	C1187.950195,294.545868 1186.726440,295.800323 1185.753174,296.544128 
	C1171.651123,307.321259 1155.885864,311.089417 1138.731567,306.253479 
	C1119.156372,300.735046 1106.697876,280.101379 1109.212646,258.553558 
	C1111.725464,237.020859 1127.994019,220.639526 1148.466064,219.027832 
	C1163.169189,217.870300 1175.481934,222.147324 1185.156982,231.959625 
	C1181.906982,236.037735 1178.626709,240.153702 1175.879883,243.600464 
	C1169.435791,240.949387 1163.732544,237.432266 1157.587280,236.288086 
	C1136.748535,232.408112 1121.361816,252.268768 1128.483032,273.270325 
	C1129.014648,274.838165 1129.775879,276.328094 1130.637207,278.165131 
z"/>
<path fill="#423F3E" opacity="1.000000" stroke="none" 
	d="
M817.426819,235.007065 
	C817.426941,229.890320 817.426941,225.272034 817.426941,220.421738 
	C823.405579,220.421738 828.837708,220.421738 835.077087,220.421738 
	C835.077087,222.140533 835.077087,223.878906 835.077087,225.617294 
	C835.077209,240.101852 835.044983,254.586533 835.106995,269.070831 
	C835.118347,271.717377 835.291443,274.403290 835.770569,277.000793 
	C837.723877,287.589691 844.005554,292.723969 854.880249,292.826965 
	C865.699707,292.929443 872.196960,287.830841 874.280518,277.344269 
	C874.826477,274.596649 874.967407,271.732483 874.978516,268.920593 
	C875.041748,252.944061 875.009216,236.967163 875.009216,220.584946 
	C880.870422,220.584946 886.548706,220.584946 892.729431,220.584946 
	C892.729431,228.520355 892.778076,236.302338 892.717773,244.083466 
	C892.631409,255.231659 893.128113,266.435822 892.181824,277.514099 
	C890.683716,295.053009 879.999512,305.638306 862.485779,307.728882 
	C857.251648,308.353699 851.767029,308.363037 846.570374,307.548706 
	C828.756104,304.757019 818.791809,294.075745 817.776489,275.947021 
	C817.023438,262.502167 817.498657,248.988525 817.426819,235.007065 
z"/>
<path fill="#423F3E" opacity="1.000000" stroke="none" 
	d="
M743.085876,226.152512 
	C743.085999,224.039551 743.085999,222.405991 743.085999,219.679214 
	C756.397461,220.229736 769.456360,219.663712 782.138794,221.583740 
	C796.874939,223.814682 805.789612,236.647186 804.903748,251.112671 
	C804.047119,265.101410 793.105652,276.506073 778.568970,277.976257 
	C772.974854,278.542084 767.275574,278.068481 760.976318,278.068481 
	C760.976318,287.899109 760.976318,297.093658 760.976318,306.558960 
	C754.764038,306.558960 749.199768,306.558960 743.085754,306.558960 
	C743.085754,279.802734 743.085754,253.217331 743.085876,226.152512 
M779.595642,261.477692 
	C785.720154,257.496307 788.263916,252.048187 786.849854,245.940796 
	C785.636780,240.701447 781.242615,236.554703 775.588013,236.098694 
	C770.839905,235.715775 766.036438,236.019989 761.030273,236.019989 
	C761.030273,245.045593 761.030273,253.773911 761.030273,263.473450 
	C767.149902,262.911041 773.018738,262.371674 779.595642,261.477692 
z"/>
<path fill="#403D3C" opacity="1.000000" stroke="none" 
	d="
M516.506836,283.128235 
	C519.562622,286.698517 522.351501,289.997223 525.112854,293.263275 
	C511.261414,310.944366 478.700806,313.280243 461.345001,297.989044 
	C442.298737,281.208466 441.328217,250.131348 459.276794,231.761353 
	C476.127075,214.515427 507.096680,214.494797 523.412659,232.031921 
	C520.174866,236.101685 516.896729,240.222229 513.478943,244.518265 
	C506.866638,239.576736 500.001282,236.066467 491.846405,235.767792 
	C476.427307,235.203079 464.863525,246.263428 464.181854,262.305817 
	C463.524078,277.786285 474.782349,290.579926 489.687378,291.280121 
	C498.218475,291.680908 505.791504,289.354065 512.123718,283.432770 
	C513.310364,282.323120 514.462585,280.109863 516.506836,283.128235 
z"/>
<path fill="#43403F" opacity="1.000000" stroke="none" 
	d="
M944.941040,268.000000 
	C944.941040,281.110474 944.941040,293.720978 944.941040,306.589539 
	C938.900085,306.589539 933.331360,306.589539 927.395142,306.589539 
	C927.395142,283.116791 927.395142,259.864685 927.395142,235.989563 
	C919.515198,235.989563 911.969849,235.989563 904.198730,235.989563 
	C904.198730,230.468033 904.198730,225.570816 904.198730,220.424530 
	C925.494507,220.424530 946.555847,220.424530 967.902710,220.424530 
	C967.902710,225.524185 967.902710,230.420837 967.902710,235.761093 
	C960.316895,235.761093 952.901489,235.761093 944.941040,235.761093 
	C944.941040,246.629120 944.941040,257.064545 944.941040,268.000000 
z"/>
<path fill="#43403F" opacity="1.000000" stroke="none" 
	d="
M980.113281,261.000000 
	C980.113281,247.345551 980.113281,234.191101 980.113281,220.605560 
	C985.967285,220.605560 991.649292,220.605560 997.598145,220.605560 
	C997.598145,249.134293 997.598145,277.563416 997.598145,306.424011 
	C991.992737,306.424011 986.305664,306.424011 980.113281,306.424011 
	C980.113281,291.387817 980.113281,276.443909 980.113281,261.000000 
z"/>
<path fill="#FAFAFA" opacity="1.000000" stroke="none" 
	d="
M743.641479,101.635269 
	C746.800171,115.838943 739.181091,126.270195 725.099243,127.023483 
	C717.354065,127.437798 709.568481,127.097633 701.616028,127.097633 
	C701.616028,114.439346 701.616028,102.222008 701.616028,90.269524 
	C711.132935,90.269524 720.431763,89.676491 729.609863,90.473557 
	C735.954224,91.024529 740.970215,94.957802 743.641479,101.635269 
z"/>
<path fill="#FCFCFC" opacity="1.000000" stroke="none" 
	d="
M970.911255,115.091553 
	C974.951965,126.183960 978.884338,136.902603 982.970337,148.039856 
	C970.412964,148.039856 958.240051,148.039856 945.329956,148.039856 
	C951.504333,131.179916 957.564209,114.632538 964.080811,96.838036 
	C966.610596,103.566711 968.706787,109.142250 970.911255,115.091553 
z"/>
<path fill="#FDFDFD" opacity="1.000000" stroke="none" 
	d="
M593.575745,243.450623 
	C602.147583,254.086700 603.553833,265.433594 597.806885,277.321167 
	C593.401123,286.434540 585.816284,291.671661 575.545959,291.629883 
	C565.062012,291.587250 557.592590,286.093140 553.091431,276.788818 
	C544.472778,258.973236 554.749390,237.838165 573.079285,235.602386 
	C581.058594,234.629120 587.776794,237.463486 593.575745,243.450623 
z"/>
<path fill="#FDFDFD" opacity="1.000000" stroke="none" 
	d="
M779.241577,261.654999 
	C773.018738,262.371674 767.149902,262.911041 761.030273,263.473450 
	C761.030273,253.773911 761.030273,245.045593 761.030273,236.019989 
	C766.036438,236.019989 770.839905,235.715775 775.588013,236.098694 
	C781.242615,236.554703 785.636780,240.701447 786.849854,245.940796 
	C788.263916,252.048187 785.720154,257.496307 779.241577,261.654999 
z"/>
</svg>