<?xml version="1.0" encoding="UTF-8"?>
<svg version="1.1" xmlns="http://www.w3.org/2000/svg" width="268" height="128">
<path d="M0 0 C88.44 0 176.88 0 268 0 C268 42.24 268 84.48 268 128 C179.56 128 91.12 128 0 128 C0 85.76 0 43.52 0 0 Z " fill="#828188" transform="translate(0,0)"/>
<path d="M0 0 C88.44 0 176.88 0 268 0 C268 42.24 268 84.48 268 128 C179.56 128 91.12 128 0 128 C0 85.76 0 43.52 0 0 Z M27 16 C27 17.32 27 18.64 27 20 C23.7 20 20.4 20 17 20 C17 21.32 17 22.64 17 24 C17.66 24.33 18.32 24.66 19 25 C19 25.99 19 26.98 19 28 C20.32 28 21.64 28 23 28 C22.45529932 40.51589033 20.49693547 52.76463454 18.5625 65.125 C18.24624563 67.17570433 17.93048734 69.22648523 17.61523438 71.27734375 C16.39648511 79.17765028 15.17609971 87.07316443 13.78515625 94.9453125 C13.05054204 99.28696505 12.7869473 103.34736495 12.875 107.75 C12.89304687 108.94109375 12.91109375 110.1321875 12.9296875 111.359375 C12.95289063 112.23078125 12.97609375 113.1021875 13 114 C13.99 114 14.98 114 16 114 C16.508783 112.44033782 17.00663469 110.87710759 17.5 109.3125 C17.7784375 108.44238281 18.056875 107.57226562 18.34375 106.67578125 C18.99830378 104.00691616 19.03827818 101.73210508 19 99 C19.495 98.505 19.495 98.505 20 98 C20.33 98.66 20.66 99.32 21 100 C24.96 100 28.92 100 33 100 C33.33 98.35 33.66 96.7 34 95 C38.95 94.67 43.9 94.34 49 94 C49.495 92.02 49.495 92.02 50 90 C52.97 89.505 52.97 89.505 56 89 C56 90.65 56 92.3 56 94 C56.66 94 57.32 94 58 94 C57.98839844 94.63808594 57.97679687 95.27617188 57.96484375 95.93359375 C57.95582031 96.75988281 57.94679687 97.58617188 57.9375 98.4375 C57.92589844 99.26121094 57.91429687 100.08492188 57.90234375 100.93359375 C57.76732652 102.99163938 57.76732652 102.99163938 59 104 C61.25893651 104.11022649 63.52136653 104.14914899 65.78295898 104.16113281 C66.49190308 104.16609772 67.20084717 104.17106262 67.93127441 104.17617798 C70.28622391 104.19083293 72.64110607 104.19760675 74.99609375 104.203125 C76.62655134 104.20887329 78.2570089 104.21463106 79.88746643 104.22039795 C83.30982784 104.23091715 86.7321657 104.23675392 90.15454102 104.24023438 C94.54766116 104.245724 98.9404721 104.26975791 103.33349514 104.29820633 C106.7023053 104.3167957 110.07104041 104.3220363 113.43989754 104.32357025 C115.05988317 104.32660523 116.67986722 104.33466204 118.29980278 104.34775543 C120.56265928 104.36474094 122.82475276 104.3629547 125.08764648 104.35644531 C127.02171608 104.36191376 127.02171608 104.36191376 128.99485779 104.36749268 C129.98655472 104.24622009 130.97825165 104.12494751 132 104 C132.99 102.515 132.99 102.515 134 101 C134.33 101.33 134.66 101.66 135 102 C137.06772734 102.19941868 137.06772734 102.19941868 139.4375 102.1875 C140.64212891 102.20876953 140.64212891 102.20876953 141.87109375 102.23046875 C144.21630633 102.20162356 144.21630633 102.20162356 146 100 C146 99.01 146 98.02 146 97 C144.68 96.67 143.36 96.34 142 96 C142.56929891 95.99945523 143.13859781 95.99891047 143.7251482 95.99834919 C157.57105786 95.98338842 171.41664117 95.94065334 185.26237202 95.86790943 C191.95808806 95.8335739 198.65355878 95.80790156 205.34936523 95.80444336 C211.80752552 95.80017456 218.26516692 95.77182919 224.72316551 95.72656822 C227.1907671 95.71354784 229.65843064 95.70930147 232.12606239 95.71384621 C235.57460651 95.71871971 239.02161497 95.69280215 242.4699707 95.65942383 C243.49711685 95.66804947 244.524263 95.67667511 245.58253479 95.68556213 C248.15463276 95.64364646 250.49242075 95.5726102 253 95 C255.32144147 92.41191616 255.92162888 91.06819395 256.17285156 87.64404297 C256.03314941 86.45512451 256.03314941 86.45512451 255.890625 85.2421875 C255.74753906 83.93314453 255.74753906 83.93314453 255.6015625 82.59765625 C255.48554688 81.69917969 255.36953125 80.80070312 255.25 79.875 C255.14945313 78.96878906 255.04890625 78.06257813 254.9453125 77.12890625 C254.53572722 73.58441825 254.1316894 70.39506821 253 67 C252.72883278 65.11886616 252.4940363 63.23237865 252.28125 61.34375 C252.08982422 59.68666016 252.08982422 59.68666016 251.89453125 57.99609375 C251.63151042 55.66536458 251.36848958 53.33463542 251.10546875 51.00390625 C250.91404297 49.34681641 250.91404297 49.34681641 250.71875 47.65625 C250.60466797 46.64369141 250.49058594 45.63113281 250.37304688 44.58789062 C250.06260667 41.89175658 250.06260667 41.89175658 249 39 C248.63550919 36.22930029 248.30205017 33.4649457 248 30.6875 C247.83475395 29.19124867 247.66811177 27.69515081 247.5 26.19921875 C247.4278125 25.53752686 247.355625 24.87583496 247.28125 24.1940918 C246.92975148 21.45197621 246.45448959 18.72693753 246 16 C173.73 16 101.46 16 27 16 Z " fill="#1F1F1F" transform="translate(0,0)"/>
<path d="M0 0 C1.07658425 2.64252499 1.04757555 3.84938839 0.17765808 6.60331726 C-2.36918962 9.406322 -2.94092234 9.39286924 -6.57475281 9.63923645 C-8.55959284 9.67158199 -10.54499572 9.6760935 -12.5300293 9.65942383 C-14.15465591 9.67514938 -14.15465591 9.67514938 -15.81210327 9.69119263 C-19.39976294 9.72004338 -22.9864634 9.71363896 -26.57421875 9.70703125 C-29.05859086 9.72014012 -31.54295229 9.73544182 -34.02729797 9.75285339 C-39.90276424 9.78872444 -45.77795708 9.80244323 -51.65352517 9.8054778 C-58.99896381 9.81062499 -66.34412016 9.85008032 -73.68945312 9.88867188 C-86.79295403 9.953357 -99.8963508 9.987461 -113 10 C-111.02 10.495 -111.02 10.495 -109 11 C-109.875 14.875 -109.875 14.875 -111 16 C-112.47754616 16.07228699 -113.95833998 16.0837999 -115.4375 16.0625 C-116.24058594 16.05347656 -117.04367188 16.04445313 -117.87109375 16.03515625 C-118.92490234 16.01775391 -118.92490234 16.01775391 -120 16 C-120.66 16 -121.32 16 -122 16 C-122.33 16.66 -122.66 17.32 -123 18 C-132.50074325 18.02312484 -142.00147688 18.0409158 -151.50224209 18.05181217 C-155.91337004 18.05704069 -160.3244788 18.06413777 -164.7355957 18.07543945 C-168.98901115 18.08626944 -173.24240809 18.09227707 -177.49583626 18.09487724 C-179.12221633 18.09673129 -180.74859534 18.10035152 -182.37496758 18.10573006 C-184.64510193 18.11294198 -186.91515885 18.11399088 -189.18530273 18.11352539 C-191.12722755 18.11685631 -191.12722755 18.11685631 -193.10838318 18.12025452 C-196 18 -196 18 -197 17 C-197.07179964 15.48071962 -197.08392007 13.95832518 -197.0625 12.4375 C-197.05347656 11.61121094 -197.04445312 10.78492187 -197.03515625 9.93359375 C-197.02355469 9.29550781 -197.01195312 8.65742187 -197 8 C-197.66 8 -198.32 8 -199 8 C-199 6.35 -199 4.7 -199 3 C-200.98 3.33 -202.96 3.66 -205 4 C-205.33 5.32 -205.66 6.64 -206 8 C-210.95 8.33 -215.9 8.66 -221 9 C-221.33 10.65 -221.66 12.3 -222 14 C-225.96 14 -229.92 14 -234 14 C-234.33 13.34 -234.66 12.68 -235 12 C-236.51630829 13.51630829 -236.22479295 15.0149486 -236.375 17.125 C-236.81360476 21.61890122 -238.0226074 24.95924122 -240 29 C-240.66 28.67 -241.32 28.34 -242 28 C-242.23737365 19.08530089 -241.79362465 10.74392018 -240 2 C-239.34 2.66 -238.68 3.32 -238 4 C-237.67 3.01 -237.34 2.02 -237 1 C-215.99189377 0.97622086 -194.98378986 0.9588072 -173.97567272 0.94818783 C-164.21253688 0.94311736 -154.44940966 0.9362335 -144.6862793 0.92456055 C-96.44717519 0.86800892 -48.23109291 1.06826655 0 2 C0 1.34 0 0.68 0 0 Z " fill="#232222" transform="translate(255,86)"/>
<path d="M0 0 C0.33 1.32 0.66 2.64 1 4 C1.96164566 3.97779388 2.92329132 3.95558777 3.91407776 3.93270874 C12.99132877 3.72970154 22.06811757 3.5799545 31.1471262 3.48187828 C35.81462499 3.42975776 40.480287 3.35911433 45.14672852 3.24560547 C49.65322229 3.13667748 54.15795389 3.07710516 58.66566277 3.05122757 C60.38225998 3.0327964 62.09876412 2.99679941 63.81460762 2.94269943 C77.26698463 2.53554958 77.26698463 2.53554958 81.54684448 6.15216064 C83.34258292 8.69892716 84.6729043 11.18756597 86 14 C86.8222683 15.0577211 86.8222683 15.0577211 87.66114807 16.1368103 C89 18 89 18 89 21 C89.66 21 90.32 21 91 21 C91.495 23.475 91.495 23.475 92 26 C99.01655157 27.08343811 105.90880903 27.1491197 113 27.125 C114.13695312 27.12886719 115.27390625 27.13273437 116.4453125 27.13671875 C121.18575642 27.1312194 125.84139416 27.11011506 130.54296875 26.46484375 C133.39980991 26.08070353 135.50911456 25.96736704 138.3125 26.4375 C141.87258966 27.07539899 141.87258966 27.07539899 145 27 C146.13308594 27.01160156 147.26617187 27.02320312 148.43359375 27.03515625 C149.76822804 27.04443375 151.10286352 27.05354271 152.4375 27.0625 C153.75621094 27.07410156 155.07492188 27.08570312 156.43359375 27.09765625 C159.2585922 27.02030142 161.32935055 26.73673088 164 26 C166.75 26.4375 166.75 26.4375 169 27 C169 27.66 169 28.32 169 29 C170.093125 28.835 171.18625 28.67 172.3125 28.5 C176 28 176 28 179 28 C179 28.66 179 29.32 179 30 C118.61 29.67 58.22 29.34 -4 29 C-2.68 19.43 -1.36 9.86 0 0 Z " fill="#717076" transform="translate(22,58)"/>
<path d="M0 0 C16.2634323 -0.02333772 32.52685919 -0.04098348 48.79030418 -0.05181217 C56.34132827 -0.05697327 63.89234196 -0.06401244 71.44335938 -0.07543945 C78.02314086 -0.08539196 84.60291481 -0.09185479 91.18270361 -0.09408849 C94.66816172 -0.09539463 98.15359831 -0.09847441 101.63904953 -0.10573006 C105.52548381 -0.11375516 109.41189683 -0.11399077 113.29833984 -0.11352539 C115.04081749 -0.1189183 115.04081749 -0.1189183 116.8184967 -0.12442017 C117.87301529 -0.1230455 118.92753387 -0.12167084 120.01400757 -0.12025452 C120.93395697 -0.12117631 121.85390636 -0.1220981 122.80173302 -0.12304783 C125 0 125 0 127 1 C126.625 3.4375 126.625 3.4375 126 6 C122.76291939 7.61854031 119.20705115 7.34238623 115.62890625 7.5234375 C112.96436772 7.72347424 112.96436772 7.72347424 111.6877594 9.50849915 C109.27033198 11.64481968 107.55744614 11.36146174 104.36694336 11.34057617 C103.21242172 11.34034958 102.05790009 11.34012299 100.86839294 11.33988953 C99.62147171 11.32440567 98.37455048 11.30892181 97.08984375 11.29296875 C95.81146133 11.28872391 94.53307892 11.28447906 93.21595764 11.28010559 C89.8183766 11.26614394 86.42139956 11.23920287 83.02398682 11.20599365 C79.56487216 11.17533366 76.10569574 11.16159685 72.64648438 11.14648438 C66.57159049 11.11692403 60.49694911 11.07424307 54.42222595 11.02018738 C52.94818647 11.0079024 51.47409068 11 50 11 C47 11 44 11 41 11 C40.875 7.625 40.875 7.625 41 4 C41.66 3.34 42.32 2.68 43 2 C41.20598755 2.01571045 41.20598755 2.01571045 39.37573242 2.03173828 C34.94216907 2.06791405 30.50861879 2.09089166 26.07495117 2.10986328 C24.15533251 2.11992639 22.23572919 2.13357816 20.31616211 2.15087891 C17.55839248 2.17511364 14.80082536 2.18647992 12.04296875 2.1953125 C11.18350143 2.20563507 10.32403412 2.21595764 9.43852234 2.22659302 C8.23761711 2.22681961 8.23761711 2.22681961 7.01245117 2.22705078 C6.3085173 2.231492 5.60458344 2.23593323 4.87931824 2.24050903 C3 2 3 2 0 0 Z " fill="#313132" transform="translate(18,87)"/>
<path d="M0 0 C1.12082095 2.75110596 1.07977206 3.79899459 -0.03504944 6.60806274 C-2 9 -2 9 -5.16526794 9.60800171 C-6.47254349 9.59991486 -7.77981903 9.591828 -9.12670898 9.58349609 C-10.21035988 9.58700073 -10.21035988 9.58700073 -11.31590271 9.59057617 C-13.71002991 9.59219374 -16.10223859 9.55810141 -18.49609375 9.5234375 C-20.16699021 9.51664351 -21.83789629 9.51192407 -23.50880432 9.50918579 C-27.9186454 9.49575245 -32.32768524 9.45146276 -36.73724365 9.40161133 C-40.30559365 9.36644484 -43.87385917 9.35316831 -47.44235134 9.34119225 C-51.73114814 9.32627489 -56.01986266 9.30115526 -60.30859375 9.2734375 C-61.11361265 9.26852673 -61.91863155 9.26361595 -62.74804497 9.25855637 C-71.0521788 9.19925561 -79.28740465 9.00337593 -87.56178284 8.21966553 C-90.44837988 7.95960425 -93.3054802 7.88549698 -96.203125 7.90234375 C-97.20214844 7.90556641 -98.20117188 7.90878906 -99.23046875 7.91210938 C-100.22691406 7.92048828 -101.22335938 7.92886719 -102.25 7.9375 C-103.29285156 7.94201172 -104.33570313 7.94652344 -105.41015625 7.95117188 C-107.94016854 7.96277744 -110.47005042 7.9790993 -113 8 C-112.34 7.34 -111.68 6.68 -111 6 C-110.3574765 3.93125966 -110.3574765 3.93125966 -110 2 C-110.66 1.67 -111.32 1.34 -112 1 C-84.89036646 0.85975916 -57.79336728 1.07485499 -30.6875 1.5 C-29.5435206 1.51793673 -29.5435206 1.51793673 -28.37643051 1.53623581 C-18.91752342 1.68507323 -9.4587208 1.83974711 0 2 C0 1.34 0 0.68 0 0 Z " fill="#595555" transform="translate(255,86)"/>
<path d="M0 0 C0.64417374 -0.00014603 1.28834747 -0.00029205 1.95204163 -0.0004425 C4.0784951 0.00025344 6.20486068 0.00803091 8.33129883 0.01586914 C9.80674695 0.01773445 11.28219569 0.01915782 12.75764465 0.02015686 C16.63908603 0.02397313 20.52048993 0.03379583 24.4019165 0.04486084 C28.36339816 0.05509408 32.32488588 0.05965858 36.28637695 0.06469727 C44.05787841 0.07541889 51.82934899 0.09248464 59.60083008 0.11352539 C60.09583008 2.58852539 60.09583008 2.58852539 60.60083008 5.11352539 C23.49049606 6.20980804 23.49049606 6.20980804 8.53833008 6.23852539 C7.1074707 6.24529297 7.1074707 6.24529297 5.64770508 6.25219727 C1.46495475 6.24292972 -2.30517184 6.02555467 -6.39916992 5.11352539 C-9.00598262 4.89471521 -11.60137181 4.70339686 -14.21166992 4.55102539 C-15.25097656 4.48625 -15.25097656 4.48625 -16.3112793 4.42016602 C-18.00705679 4.31491086 -19.70309044 4.21379676 -21.39916992 4.11352539 C-20.73916992 3.12352539 -20.07916992 2.13352539 -19.39916992 1.11352539 C-17.12182617 0.85571289 -17.12182617 0.85571289 -14.46166992 0.98852539 C-9.47234938 1.20896665 -5.03084034 -0.00958255 0 0 Z " fill="#252524" transform="translate(81.399169921875,88.886474609375)"/>
<path d="M0 0 C20.46 0 40.92 0 62 0 C62 1.65 62 3.3 62 5 C41.54 5 21.08 5 0 5 C0 3.35 0 1.7 0 0 Z " fill="#E7CE99" transform="translate(70,99)"/>
<path d="M0 0 C0.99 0.33 1.98 0.66 3 1 C4.39080093 1.09022724 5.78552061 1.12627261 7.179245 1.12698364 C8.03005142 1.12980347 8.88085785 1.13262329 9.75744629 1.13552856 C10.68786743 1.13350433 11.61828857 1.1314801 12.5769043 1.12939453 C14.0505822 1.13202301 14.0505822 1.13202301 15.55403137 1.13470459 C18.81077833 1.13911525 22.06747121 1.13618672 25.32421875 1.1328125 C27.58763133 1.13348604 29.85104384 1.13445648 32.11445618 1.13571167 C36.8649667 1.1371878 41.61545845 1.13503779 46.3659668 1.13037109 C52.44430644 1.12469012 58.52260176 1.12794299 64.60093975 1.13394356 C69.27904084 1.13756533 73.95713151 1.13640287 78.63523293 1.13381577 C80.87544574 1.13315012 83.1156595 1.13396222 85.3558712 1.13629532 C88.49598041 1.13884653 91.63601906 1.13494577 94.77612305 1.12939453 C96.15657303 1.13243088 96.15657303 1.13243088 97.56491089 1.13552856 C102.80453211 1.11844599 107.81046705 0.71556911 113 0 C115.42578125 0.12109375 115.42578125 0.12109375 117.3125 0.4375 C120.87258966 1.07539899 120.87258966 1.07539899 124 1 C125.13308594 1.01160156 126.26617187 1.02320312 127.43359375 1.03515625 C128.76822804 1.04443375 130.10286352 1.05354271 131.4375 1.0625 C132.75621094 1.07410156 134.07492188 1.08570312 135.43359375 1.09765625 C138.2585922 1.02030142 140.32935055 0.73673088 143 0 C145.75 0.4375 145.75 0.4375 148 1 C148 1.66 148 2.32 148 3 C149.093125 2.835 150.18625 2.67 151.3125 2.5 C155 2 155 2 158 2 C158 2.66 158 3.32 158 4 C102.89 3.67 47.78 3.34 -9 3 C-7 1 -7 1 -3.9375 0.9375 C-2.4834375 0.9684375 -2.4834375 0.9684375 -1 1 C-0.67 0.67 -0.34 0.34 0 0 Z " fill="#6D6C71" transform="translate(43,84)"/>
<path d="M0 0 C0 0.33 0 0.66 0 1 C-17.325 1.495 -17.325 1.495 -35 2 C-33.68 2.33 -32.36 2.66 -31 3 C-31.875 6.875 -31.875 6.875 -33 8 C-34.45667689 8.07254367 -35.9166725 8.08373778 -37.375 8.0625 C-38.56222656 8.04896484 -38.56222656 8.04896484 -39.7734375 8.03515625 C-40.50820312 8.02355469 -41.24296875 8.01195313 -42 8 C-42.99 8 -43.98 8 -45 8 C-45 7.01 -45 6.02 -45 5 C-54.24 5 -63.48 5 -73 5 C-73 4.67 -73 4.34 -73 4 C-64.42 3.67 -55.84 3.34 -47 3 C-46.67 2.01 -46.34 1.02 -46 0 C-9.07997498 -1.73871861 -9.07997498 -1.73871861 0 0 Z " fill="#484543" transform="translate(177,94)"/>
<path d="M0 0 C8.58 0 17.16 0 26 0 C26 0.33 26 0.66 26 1 C20.06 1.495 20.06 1.495 14 2 C13.67 3.32 13.34 4.64 13 6 C12.66666667 7.33333333 12.33333333 8.66666667 12 10 C13.45880109 9.85892253 14.91703551 9.71197585 16.375 9.5625 C17.18710938 9.48128906 17.99921875 9.40007812 18.8359375 9.31640625 C21.04272805 9.10909886 21.04272805 9.10909886 23 8 C23 8.66 23 9.32 23 10 C34.22 10 45.44 10 57 10 C57 10.33 57 10.66 57 11 C45.78 11 34.56 11 23 11 C23 12.32 23 13.64 23 15 C20.6203388 16.1898306 19.08514265 16.13349966 16.4375 16.125 C15.22900391 16.12886719 15.22900391 16.12886719 13.99609375 16.1328125 C12 16 12 16 11 15 C10.92820036 13.48071962 10.91607993 11.95832518 10.9375 10.4375 C10.94652344 9.61121094 10.95554687 8.78492187 10.96484375 7.93359375 C10.97644531 7.29550781 10.98804688 6.65742187 11 6 C10.34 6 9.68 6 9 6 C9 4.35 9 2.7 9 1 C6.06556598 1.26656572 6.06556598 1.26656572 3 2 C2.01 3.485 2.01 3.485 1 5 C0.67 3.35 0.34 1.7 0 0 Z " fill="#3B3A3A" transform="translate(47,88)"/>
<path d="M0 0 C0.89203125 0.10183594 1.7840625 0.20367187 2.703125 0.30859375 C3.37859375 0.39238281 4.0540625 0.47617187 4.75 0.5625 C4.75 2.2125 4.75 3.8625 4.75 5.5625 C6.07 5.5625 7.39 5.5625 8.75 5.5625 C8.75 6.8825 8.75 8.2025 8.75 9.5625 C7 10.6875 7 10.6875 4.75 11.5625 C2.5 10.6875 2.5 10.6875 0.75 9.5625 C-0.24 11.0475 -0.24 11.0475 -1.25 12.5625 C-4.875 12.75 -4.875 12.75 -8.25 12.5625 C-8.25 10.2525 -8.25 7.9425 -8.25 5.5625 C-6.93 5.8925 -5.61 6.2225 -4.25 6.5625 C-5.24 6.5625 -6.23 6.5625 -7.25 6.5625 C-7.25 7.2225 -7.25 7.8825 -7.25 8.5625 C-5.93 7.9025 -4.61 7.2425 -3.25 6.5625 C-3.25 5.9025 -3.25 5.2425 -3.25 4.5625 C-5.56 4.2325 -7.87 3.9025 -10.25 3.5625 C-9.92 2.5725 -9.59 1.5825 -9.25 0.5625 C-6.11637016 -0.72906365 -3.31158531 -0.39216142 0 0 Z " fill="#8B8990" transform="translate(194.25,41.4375)"/>
<path d="M0 0 C0.66 0 1.32 0 2 0 C0.65014599 13.25052162 -1.1399812 26.41588323 -3.08666992 39.59106445 C-3.56841236 42.85252753 -4.04529447 46.11467515 -4.52148438 49.37695312 C-4.82784719 51.46618659 -5.1344777 53.55538082 -5.44140625 55.64453125 C-5.65392784 57.09603325 -5.65392784 57.09603325 -5.8707428 58.57685852 C-6.07116432 59.9306385 -6.07116432 59.9306385 -6.27563477 61.31176758 C-6.39173599 62.09908768 -6.50783722 62.88640778 -6.62745667 63.69758606 C-7.02363105 66.146046 -7.49950944 68.57090522 -8 71 C-8.33 71 -8.66 71 -9 71 C-9.22291514 62.16740349 -8.64601844 53.78140575 -7.28515625 45.05859375 C-7.10995956 43.88788834 -6.93476288 42.71718292 -6.7542572 41.51100159 C-6.19921687 37.81842808 -5.63085218 34.12804522 -5.0625 30.4375 C-4.68471763 27.92916121 -4.30775736 25.42069846 -3.93164062 22.91210938 C-3.24176864 18.3422934 -2.55179031 13.77251348 -1.84790039 9.20483398 C-1.6380526 7.83801735 -1.6380526 7.83801735 -1.42396545 6.44358826 C-1.04493838 4.25900906 -0.57152608 2.14120847 0 0 Z " fill="#B3AFB7" transform="translate(25,24)"/>
<path d="M0 0 C1.2143573 -0.00315216 2.4287146 -0.00630432 3.67987061 -0.009552 C5.62545868 -0.00651566 5.62545868 -0.00651566 7.61035156 -0.00341797 C8.96462013 -0.00409222 10.31888858 -0.00506326 11.67315674 -0.00631714 C14.50070354 -0.00778639 17.32821862 -0.0056631 20.15576172 -0.00097656 C23.78298315 0.00474219 27.41013092 0.00142335 31.0373497 -0.00454903 C33.82882242 -0.00815689 36.62027756 -0.00701539 39.41175079 -0.00442123 C41.40045723 -0.00342914 43.38916436 -0.00646762 45.37786865 -0.009552 C46.57961731 -0.00639984 47.78136597 -0.00324768 49.01953125 0 C50.61121124 0.00119339 50.61121124 0.00119339 52.23504639 0.00241089 C54.75097656 0.12939453 54.75097656 0.12939453 56.75097656 1.12939453 C56.42097656 2.77939453 56.09097656 4.42939453 55.75097656 6.12939453 C54.76097656 6.12939453 53.77097656 6.12939453 52.75097656 6.12939453 C52.75097656 4.80939453 52.75097656 3.48939453 52.75097656 2.12939453 C31.30097656 2.12939453 9.85097656 2.12939453 -12.24902344 2.12939453 C-12.24902344 1.79939453 -12.24902344 1.46939453 -12.24902344 1.12939453 C-8.11271564 0.34964638 -4.20681683 0.0031447 0 0 Z " fill="#3E3E3E" transform="translate(88.2490234375,86.87060546875)"/>
<path d="M0 0 C0.99 0 1.98 0 3 0 C3 1.65 3 3.3 3 5 C-17.46 5 -37.92 5 -59 5 C-59 4.34 -59 3.68 -59 3 C-39.53 3 -20.06 3 0 3 C0 2.01 0 1.02 0 0 Z " fill="#BCA084" transform="translate(129,99)"/>
<path d="M0 0 C4.95 0 9.9 0 15 0 C15.66 1.98 16.32 3.96 17 6 C12.05 6.33 7.1 6.66 2 7 C1.67 8.65 1.34 10.3 1 12 C-2.96 12 -6.92 12 -11 12 C-11 11.34 -11 10.68 -11 10 C-7.7 9.67 -4.4 9.34 -1 9 C-0.67 7.68 -0.34 6.36 0 5 C0.66 5 1.32 5 2 5 C2 3.68 2 2.36 2 1 C1.34 0.67 0.68 0.34 0 0 Z " fill="#53504E" transform="translate(32,88)"/>
<path d="M0 0 C1.98 1.65 3.96 3.3 6 5 C5.125 9.875 5.125 9.875 4 11 C3.84107168 12.37149254 3.7230369 13.74781491 3.625 15.125 C3.18639524 19.61890122 1.9773926 22.95924122 0 27 C-0.66 26.67 -1.32 26.34 -2 26 C-2.23737365 17.08530089 -1.79362465 8.74392018 0 0 Z " fill="#4C494A" transform="translate(15,88)"/>
<path d="M0 0 C3.01439114 0.32044207 5.90506391 0.625 8.9375 0.625 C10.07058594 0.63660156 11.20367187 0.64820312 12.37109375 0.66015625 C13.70572804 0.66943375 15.04036352 0.67854271 16.375 0.6875 C17.69371094 0.69910156 19.01242188 0.71070312 20.37109375 0.72265625 C23.1960922 0.64530142 25.26685055 0.36173088 27.9375 -0.375 C30.6875 0.0625 30.6875 0.0625 32.9375 0.625 C32.9375 1.285 32.9375 1.945 32.9375 2.625 C34.030625 2.46 35.12375 2.295 36.25 2.125 C39.9375 1.625 39.9375 1.625 42.9375 1.625 C42.9375 2.285 42.9375 2.945 42.9375 3.625 C33.90572433 3.68412936 24.90044994 3.51993823 15.875 3.1875 C14.69873047 3.14818359 13.52246094 3.10886719 12.31054688 3.06835938 C4.82896191 2.79953515 -2.60840537 2.31969264 -10.0625 1.625 C-6.38100649 -0.40286174 -4.20429102 -0.46888004 0 0 Z " fill="#747379" transform="translate(158.0625,84.375)"/>
<path d="M0 0 C1.4540625 0.0309375 1.4540625 0.0309375 2.9375 0.0625 C2.96438151 1.70824566 2.98384123 3.35411413 3 5 C3.01160156 5.91652344 3.02320313 6.83304687 3.03515625 7.77734375 C2.9375 10.0625 2.9375 10.0625 1.9375 11.0625 C-1.0625 11.1875 -1.0625 11.1875 -4.0625 11.0625 C-4.3925 10.7325 -4.7225 10.4025 -5.0625 10.0625 C-4.9765625 8.03125 -4.9765625 8.03125 -4.6875 5.5625 C-4.59726562 4.7478125 -4.50703125 3.933125 -4.4140625 3.09375 C-3.84375097 -0.20138326 -3.47487682 0.07091585 0 0 Z " fill="#333232" transform="translate(53.0625,88.9375)"/>
<path d="M0 0 C14.85 0 29.7 0 45 0 C45 0.33 45 0.66 45 1 C31.47 1.33 17.94 1.66 4 2 C3.67 3.32 3.34 4.64 3 6 C1.68 6.33 0.36 6.66 -1 7 C-0.34 6.34 0.32 5.68 1 5 C1.6425235 2.93125966 1.6425235 2.93125966 2 1 C1.34 0.67 0.68 0.34 0 0 Z " fill="#535255" transform="translate(143,87)"/>
<path d="M0 0 C3.3 0 6.6 0 10 0 C10 1.32 10 2.64 10 4 C9.34 4 8.68 4 8 4 C7.67 5.32 7.34 6.64 7 8 C5.35 8 3.7 8 2 8 C2 7.01 2 6.02 2 5 C1.34 4.67 0.68 4.34 0 4 C0 2.68 0 1.36 0 0 Z " fill="#796E6F" transform="translate(17,20)"/>
<path d="M0 0 C0.99 0.33 1.98 0.66 3 1 C5.24952678 1.04614414 7.50032039 1.03796928 9.75 1 C17.54201955 0.9153146 25.23338451 1.38307735 33 2 C33 2.33 33 2.66 33 3 C19.14 3 5.28 3 -9 3 C-7 1 -7 1 -3.9375 0.9375 C-2.4834375 0.9684375 -2.4834375 0.9684375 -1 1 C-0.67 0.67 -0.34 0.34 0 0 Z " fill="#605F64" transform="translate(43,84)"/>
<path d="M0 0 C3.63 0 7.26 0 11 0 C10.67 1.65 10.34 3.3 10 5 C7.03 5 4.06 5 1 5 C0.67 3.35 0.34 1.7 0 0 Z " fill="#C5AB84" transform="translate(58,99)"/>
<path d="M0 0 C0.33 0.66 0.66 1.32 1 2 C12.22 2 23.44 2 35 2 C35 2.33 35 2.66 35 3 C23.78 3 12.56 3 1 3 C0.67 4.32 0.34 5.64 0 7 C0 5.68 0 4.36 0 3 C-3.63 3 -7.26 3 -11 3 C-11 2.67 -11 2.34 -11 2 C-10.28972656 1.93941406 -9.57945313 1.87882812 -8.84765625 1.81640625 C-7.46900391 1.69072266 -7.46900391 1.69072266 -6.0625 1.5625 C-5.14597656 1.48128906 -4.22945313 1.40007812 -3.28515625 1.31640625 C-1.03840268 1.23955024 -1.03840268 1.23955024 0 0 Z " fill="#4A3F31" transform="translate(69,96)"/>
<path d="M0 0 C1.27617188 0.02320312 2.55234375 0.04640625 3.8671875 0.0703125 C5.78917969 0.09738281 5.78917969 0.09738281 7.75 0.125 C9.23113281 0.15980469 9.23113281 0.15980469 10.7421875 0.1953125 C7.4194992 2.41043803 6.45947969 2.39783773 2.6171875 2.2578125 C0.99295606 2.20367145 -0.63280682 2.17492712 -2.2578125 2.1953125 C-2.5878125 2.5253125 -2.9178125 2.8553125 -3.2578125 3.1953125 C0.7021875 3.5253125 4.6621875 3.8553125 8.7421875 4.1953125 C8.4121875 4.8553125 8.0821875 5.5153125 7.7421875 6.1953125 C7.13890625 6.16050781 6.535625 6.12570313 5.9140625 6.08984375 C0.81693262 5.8438676 0.81693262 5.8438676 -3.8203125 7.6953125 C-4.2946875 8.1903125 -4.7690625 8.6853125 -5.2578125 9.1953125 C-5.3828125 5.8203125 -5.3828125 5.8203125 -5.2578125 2.1953125 C-3.2578125 0.1953125 -3.2578125 0.1953125 0 0 Z " fill="#282827" transform="translate(64.2578125,88.8046875)"/>
<path d="M0 0 C5.28 0 10.56 0 16 0 C16 0.99 16 1.98 16 3 C10.39 3 4.78 3 -1 3 C-0.67 2.01 -0.34 1.02 0 0 Z " fill="#EBD6A5" transform="translate(113,99)"/>
<path d="M0 0 C1.32 0 2.64 0 4 0 C4.34615998 5.65394631 3.43425238 9.03006806 1 14 C0.34 13.67 -0.32 13.34 -1 13 C-0.67 8.71 -0.34 4.42 0 0 Z " fill="#988E8D" transform="translate(14,101)"/>
<path d="M0 0 C0.33 0 0.66 0 1 0 C2.79466267 8.97331334 0.79335762 17.17505941 -1 26 C-1.33 26 -1.66 26 -2 26 C-2.26197285 17.10747704 -1.6039348 8.75003718 0 0 Z " fill="#99959B" transform="translate(18,69)"/>
<path d="M0 0 C0.66 0 1.32 0 2 0 C2 2.64 2 5.28 2 8 C-0.31 8 -2.62 8 -5 8 C-5 5.69 -5 3.38 -5 1 C-3.68 1.33 -2.36 1.66 -1 2 C-1.99 2 -2.98 2 -4 2 C-4 2.66 -4 3.32 -4 4 C-2.68 3.34 -1.36 2.68 0 2 C0 1.34 0 0.68 0 0 Z " fill="#C08F91" transform="translate(191,46)"/>
<path d="M0 0 C0.66 0 1.32 0 2 0 C1.71781919 2.91786964 1.42465873 5.833918 1.125 8.75 C1.04636719 9.575 0.96773437 10.4 0.88671875 11.25 C0.76103516 12.44882812 0.76103516 12.44882812 0.6328125 13.671875 C0.55949707 14.4050293 0.48618164 15.13818359 0.41064453 15.89355469 C-0.03889753 18.19952905 -0.8637373 19.95391841 -2 22 C-2.23576736 14.37685526 -1.83717315 7.41430591 0 0 Z " fill="#C5C0C9" transform="translate(25,24)"/>
<path d="M0 0 C0.66 0 1.32 0 2 0 C1.67 2.31 1.34 4.62 1 7 C-2.96 7 -6.92 7 -11 7 C-11 6.34 -11 5.68 -11 5 C-7.7 4.67 -4.4 4.34 -1 4 C-0.67 2.68 -0.34 1.36 0 0 Z " fill="#474442" transform="translate(32,93)"/>
<path d="M0 0 C1.98 0 3.96 0 6 0 C6 1.32 6 2.64 6 4 C3.69 4.33 1.38 4.66 -1 5 C-0.67 3.35 -0.34 1.7 0 0 Z " fill="#252524" transform="translate(50,89)"/>
<path d="M0 0 C0.78375 0.04125 1.5675 0.0825 2.375 0.125 C2.045 1.775 1.715 3.425 1.375 5.125 C-1.49224686 4.55155063 -2.4864515 4.2635485 -4.625 2.125 C-2.625 0.125 -2.625 0.125 0 0 Z " fill="#2B2B2A" transform="translate(29.625,92.875)"/>
<path d="M0 0 C2.64 0 5.28 0 8 0 C8 0.99 8 1.98 8 3 C6.25 4.125 6.25 4.125 4 5 C1.75 4.125 1.75 4.125 0 3 C0 2.01 0 1.02 0 0 Z " fill="#BFBFC4" transform="translate(195,48)"/>
<path d="M0 0 C0.99 0 1.98 0 3 0 C3 2.31 3 4.62 3 7 C1.02 7 -0.96 7 -3 7 C-2.67 6.34 -2.34 5.68 -2 5 C-1.34 5 -0.68 5 0 5 C0 3.35 0 1.7 0 0 Z " fill="#5A504E" transform="translate(22,21)"/>
<path d="M0 0 C2.97 0 5.94 0 9 0 C8.01 0.495 8.01 0.495 7 1 C7 1.66 7 2.32 7 3 C4.69 3 2.38 3 0 3 C0 2.01 0 1.02 0 0 Z " fill="#E3C590" transform="translate(70,99)"/>
<path d="M0 0 C0.99 0 1.98 0 3 0 C3 1.32 3 2.64 3 4 C-1.29 4 -5.58 4 -10 4 C-10 3.67 -10 3.34 -10 3 C-6.7 3 -3.4 3 0 3 C0 2.01 0 1.02 0 0 Z " fill="#CEB186" transform="translate(129,99)"/>
<path d="M0 0 C4.29 0 8.58 0 13 0 C11.515 1.485 11.515 1.485 10 3 C10 2.34 10 1.68 10 1 C6.56769552 1.26393501 6.56769552 1.26393501 3 2 C2.01 3.485 2.01 3.485 1 5 C0.67 3.35 0.34 1.7 0 0 Z " fill="#424041" transform="translate(47,88)"/>
<path d="M0 0 C1.32 0 2.64 0 4 0 C3.34 1.65 2.68 3.3 2 5 C1.01 5 0.02 5 -1 5 C-0.67 3.35 -0.34 1.7 0 0 Z " fill="#746F71" transform="translate(251,89)"/>
<path d="M0 0 C0.66 0.33 1.32 0.66 2 1 C2 1.66 2 2.32 2 3 C-2.29 3 -6.58 3 -11 3 C-11 2.67 -11 2.34 -11 2 C-10.28972656 1.93941406 -9.57945312 1.87882812 -8.84765625 1.81640625 C-7.46900391 1.69072266 -7.46900391 1.69072266 -6.0625 1.5625 C-5.14597656 1.48128906 -4.22945312 1.40007812 -3.28515625 1.31640625 C-1.03840268 1.23955024 -1.03840268 1.23955024 0 0 Z " fill="#69676C" transform="translate(199,85)"/>
</svg>
