<?xml version="1.0" encoding="UTF-8"?>
<svg version="1.1" xmlns="http://www.w3.org/2000/svg" width="275" height="77">
<path d="M0 0 C90.75 0 181.5 0 275 0 C275 25.41 275 50.82 275 77 C184.25 77 93.5 77 0 77 C0 51.59 0 26.18 0 0 Z " fill="#9DDFAA" transform="translate(0,0)"/>
<path d="M0 0 C3.18172489 1.73367473 4.97220653 3.17120041 6.99609375 6.20703125 C7.12109375 8.89453125 7.12109375 8.89453125 6.99609375 11.20703125 C3.31874151 10.89182963 2.16437358 10.38394081 -0.44140625 7.64453125 C-2.80404333 4.93662591 -2.80404333 4.93662591 -6.12890625 4.70703125 C-8.96237786 5.01777271 -8.96237786 5.01777271 -10.94140625 6.39453125 C-12.21336777 8.1985941 -12.21336777 8.1985941 -11.94140625 10.58203125 C-11.13942987 13.34668178 -11.13942987 13.34668178 -8.94140625 15.51953125 C-6.20077149 19.32105689 -6.62518754 21.58666296 -7.00390625 26.20703125 C-7.33390625 26.86703125 -7.66390625 27.52703125 -8.00390625 28.20703125 C-6.02390625 28.20703125 -4.04390625 28.20703125 -2.00390625 28.20703125 C-1.44140625 30.14453125 -1.44140625 30.14453125 -1.00390625 32.20703125 C-3.24043758 34.44356258 -8.191696 33.53318327 -11.19140625 33.58203125 C-12.04283203 33.61941406 -12.89425781 33.65679687 -13.77148438 33.6953125 C-18.14281873 33.75616634 -21.08358598 33.63152125 -24.5546875 30.80859375 C-27.64822374 27.52263659 -28.15584483 26.08819778 -28.19140625 21.70703125 C-28.20558594 20.91296875 -28.21976563 20.11890625 -28.234375 19.30078125 C-28.00390625 17.20703125 -28.00390625 17.20703125 -26.00390625 15.20703125 C-23.87890625 15.58203125 -23.87890625 15.58203125 -22.00390625 16.20703125 C-22.06578125 17.46515625 -22.12765625 18.72328125 -22.19140625 20.01953125 C-22.18192209 22.69406526 -22.16826778 23.92156123 -20.81640625 26.26953125 C-18.24110532 27.60158345 -16.70673229 27.06055526 -14.00390625 26.20703125 C-12.78217141 25.17778465 -12.78217141 25.17778465 -12.62890625 23.01953125 C-13.08685703 19.58490042 -14.61498803 18.37715309 -16.875 15.87890625 C-19.07185725 12.62542907 -18.54936001 10.02520758 -18.00390625 6.20703125 C-13.93009879 -0.48565243 -7.48207833 -2.96074445 0 0 Z " fill="#F9FDFA" transform="translate(60.00390625,22.79296875)"/>
<path d="M0 0 C0.66 0 1.32 0 2 0 C2 0.66 2 1.32 2 2 C6.62 2 11.24 2 16 2 C16.10372765 8.43111423 15.72027812 14.60753173 15 21 C10.05 21 5.1 21 0 21 C-0.1953125 18.98177083 -0.390625 16.96354167 -0.5859375 14.9453125 C-0.86374749 12.77331755 -0.86374749 12.77331755 -3 11 C-1.68 10.01 -0.36 9.02 1 8 C-0.32 7.67 -1.64 7.34 -3 7 C-1.125 1.125 -1.125 1.125 0 0 Z " fill="#59878D" transform="translate(140,27)"/>
<path d="M0 0 C0.66 0 1.32 0 2 0 C2 0.66 2 1.32 2 2 C3.65 2 5.3 2 7 2 C7.33 1.34 7.66 0.68 8 0 C8.66 0 9.32 0 10 0 C10 0.66 10 1.32 10 2 C11.98 2 13.96 2 16 2 C16 2.66 16 3.32 16 4 C15.01 4.495 15.01 4.495 14 5 C14 8.3 14 11.6 14 15 C14.99 15.33 15.98 15.66 17 16 C17 16.66 17 17.32 17 18 C15.35 18 13.7 18 12 18 C12 19.32 12 20.64 12 22 C11.01 22 10.02 22 9 22 C9 20.68 9 19.36 9 18 C7.39125 18.4640625 7.39125 18.4640625 5.75 18.9375 C3.17133778 19.66812096 0.60487898 20.37482904 -2 21 C-2 20.34 -2 19.68 -2 19 C-2.66 18.67 -3.32 18.34 -4 18 C-4 17.34 -4 16.68 -4 16 C-3.34 15.67 -2.68 15.34 -2 15 C-2 12.03 -2 9.06 -2 6 C-2.66 6 -3.32 6 -4 6 C-2.84826645 3.53199953 -1.95216435 1.95216435 0 0 Z " fill="#2B4D75" transform="translate(164,27)"/>
<path d="M0 0 C0.66 0 1.32 0 2 0 C2 1.32 2 2.64 2 4 C2.99 4 3.98 4 5 4 C5 5.65 5 7.3 5 9 C4.34 9 3.68 9 3 9 C3 8.01 3 7.02 3 6 C2.34 6 1.68 6 1 6 C1 8.31 1 10.62 1 13 C1.66 13 2.32 13 3 13 C3 13.99 3 14.98 3 16 C3.66 16 4.32 16 5 16 C5.66 11.05 6.32 6.1 7 1 C10.3 1 13.6 1 17 1 C17 3.31 17 5.62 17 8 C17.66 8 18.32 8 19 8 C19 8.99 19 9.98 19 11 C18.34 11 17.68 11 17 11 C17.33 13.31 17.66 15.62 18 18 C17.34 18 16.68 18 16 18 C16 18.99 16 19.98 16 21 C14.35 21 12.7 21 11 21 C11 20.34 11 19.68 11 19 C10.236875 19 9.47375 19 8.6875 19 C3 19 3 19 1 18 C0.67 18.99 0.34 19.98 0 21 C-0.66 21 -1.32 21 -2 21 C-1.814375 20.071875 -1.62875 19.14375 -1.4375 18.1875 C-0.75876119 14.98656229 -0.75876119 14.98656229 -2 12 C-2.12781786 9.32605036 -2.04391871 6.67904143 -2 4 C-1.34 4 -0.68 4 0 4 C0 2.68 0 1.36 0 0 Z " fill="#1B396C" transform="translate(116,27)"/>
<path d="M0 0 C2.75329021 1.79562405 4.52627461 3.05254922 6 6 C6.43023798 9.87214182 6.31669086 11.52496371 4.125 14.8125 C1.42055063 17.59649199 0.57733296 17.93464155 -3.3125 18.375 C-7 18 -7 18 -9.9375 16 C-12.23092162 12.66411401 -12.75815509 10.90015906 -12.48046875 6.9375 C-10.87278432 0.45447986 -5.98096831 -0.96122705 0 0 Z " fill="#F5FCF6" transform="translate(72,38)"/>
<path d="M0 0 C0.67546875 0.08378906 1.3509375 0.16757812 2.046875 0.25390625 C2.93890625 0.35574219 3.8309375 0.45757813 4.75 0.5625 C5.63171875 0.66691406 6.5134375 0.77132813 7.421875 0.87890625 C9.88432451 0.99456676 11.66538064 0.73638695 14 0 C13.67 1.32 13.34 2.64 13 4 C13.66 4.33 14.32 4.66 15 5 C15 5.99 15 6.98 15 8 C15.66 8 16.32 8 17 8 C17 8.66 17 9.32 17 10 C12.71 10 8.42 10 4 10 C4 10.66 4 11.32 4 12 C5.051875 11.7215625 5.051875 11.7215625 6.125 11.4375 C9.33888698 10.94843024 11.83560336 11.33768442 15 12 C15 14.64 15 17.28 15 20 C13.68 20 12.36 20 11 20 C11 19.34 11 18.68 11 18 C11.66 18 12.32 18 13 18 C13 16.68 13 15.36 13 14 C11.68 14 10.36 14 9 14 C9 16.31 9 18.62 9 21 C8.01 21 7.02 21 6 21 C6 18.69 6 16.38 6 14 C4.68 14 3.36 14 2 14 C2 15.98 2 17.96 2 20 C1.34 20 0.68 20 0 20 C-0.33 18.68 -0.66 17.36 -1 16 C-1.66 16.33 -2.32 16.66 -3 17 C-2.43628586 13.73045798 -1.50037734 12.17424117 1 10 C-0.32 10 -1.64 10 -3 10 C-3 9.34 -3 8.68 -3 8 C-0.69 8 1.62 8 4 8 C4 7.34 4 6.68 4 6 C2.35 6.33 0.7 6.66 -1 7 C-0.7525 6.1028125 -0.7525 6.1028125 -0.5 5.1875 C0.1114124 2.88655664 0.1114124 2.88655664 0 0 Z " fill="#214071" transform="translate(94,27)"/>
<path d="M0 0 C6.27 0 12.54 0 19 0 C19 0.99 19 1.98 19 3 C18.34 3 17.68 3 17 3 C16.896875 3.78375 16.79375 4.5675 16.6875 5.375 C16 8 16 8 13 10 C13 6.89448334 13.5393715 5.64738916 15 3 C13.68 3 12.36 3 11 3 C11 5.64 11 8.28 11 11 C13.97 11 16.94 11 20 11 C20 11.66 20 12.32 20 13 C17.03 13 14.06 13 11 13 C11 15.31 11 17.62 11 20 C10.01 20 9.02 20 8 20 C8 17.69 8 15.38 8 13 C5.03 13 2.06 13 -1 13 C-1 12.34 -1 11.68 -1 11 C1.97 11 4.94 11 8 11 C8 8.36 8 5.72 8 3 C6.68 3.33 5.36 3.66 4 4 C4.66 5.65 5.32 7.3 6 9 C3.5067466 8.00269864 2.22532561 7.34925469 0.75 5.0625 C0 3 0 3 0 0 Z " fill="#284A73" transform="translate(207,28)"/>
<path d="M0 0 C5.28 0 10.56 0 16 0 C16 3.3 16 6.6 16 10 C10.72 10 5.44 10 0 10 C0 6.7 0 3.4 0 0 Z " fill="#315577" transform="translate(231,38)"/>
<path d="M0 0 C0.66 0 1.32 0 2 0 C2 0.66 2 1.32 2 2 C3.98 2 5.96 2 8 2 C8 2.66 8 3.32 8 4 C6.68 4 5.36 4 4 4 C4 4.66 4 5.32 4 6 C5.32 6.33 6.64 6.66 8 7 C7.01 7.495 7.01 7.495 6 8 C6.33 9.65 6.66 11.3 7 13 C5.35 13 3.7 13 2 13 C2 13.66 2 14.32 2 15 C5.3 15 8.6 15 12 15 C12 15.66 12 16.32 12 17 C8.7 17 5.4 17 2 17 C2 17.66 2 18.32 2 19 C5.96 18.67 9.92 18.34 14 18 C14 18.99 14 19.98 14 21 C9.38 21 4.76 21 0 21 C-0.1953125 18.98177083 -0.390625 16.96354167 -0.5859375 14.9453125 C-0.86374749 12.77331755 -0.86374749 12.77331755 -3 11 C-1.68 10.01 -0.36 9.02 1 8 C-0.32 7.67 -1.64 7.34 -3 7 C-1.125 1.125 -1.125 1.125 0 0 Z " fill="#1D3C6E" transform="translate(140,27)"/>
<path d="M0 0 C6.6 0 13.2 0 20 0 C20 0.66 20 1.32 20 2 C16.7 2 13.4 2 10 2 C9.690625 2.78375 9.38125 3.5675 9.0625 4.375 C8 7 8 7 7 9 C10.465 8.505 10.465 8.505 14 8 C13.67 6.68 13.34 5.36 13 4 C17.39158329 5.4638611 17.87947433 7.97831338 20 12 C19.01 12.33 18.02 12.66 17 13 C17 12.34 17 11.68 17 11 C15.515 11.2475 15.515 11.2475 14 11.5 C9.97267058 12.08474517 6.06525377 12.07132024 2 12 C2 8.07176899 3.51754449 6.93381106 6 4 C6.33 3.34 6.66 2.68 7 2 C4.69 2 2.38 2 0 2 C0 1.34 0 0.68 0 0 Z " fill="#20406F" transform="translate(183,35)"/>
<path d="M0 0 C3.0625 0.125 3.0625 0.125 5.0625 1.125 C5.0625 2.445 5.0625 3.765 5.0625 5.125 C5.7225 5.125 6.3825 5.125 7.0625 5.125 C7.0625 6.115 7.0625 7.105 7.0625 8.125 C6.4025 8.125 5.7425 8.125 5.0625 8.125 C5.0625 9.775 5.0625 11.425 5.0625 13.125 C2.0925 13.125 -0.8775 13.125 -3.9375 13.125 C-3.96436553 11.14590602 -3.98383375 9.16671029 -4 7.1875 C-4.01160156 6.08535156 -4.02320312 4.98320313 -4.03515625 3.84765625 C-3.89925596 0.05875603 -3.81427871 0.16230973 0 0 Z " fill="#335978" transform="translate(127.9375,29.875)"/>
<path d="M0 0 C0.67546875 0.08378906 1.3509375 0.16757812 2.046875 0.25390625 C2.93890625 0.35574219 3.8309375 0.45757813 4.75 0.5625 C6.07257813 0.71912109 6.07257813 0.71912109 7.421875 0.87890625 C9.88432451 0.99456676 11.66538064 0.73638695 14 0 C13.67 1.32 13.34 2.64 13 4 C13.66 4.33 14.32 4.66 15 5 C15 5.99 15 6.98 15 8 C10.19482596 8.0942191 5.70130193 8.13970956 1 7 C0.34 7 -0.32 7 -1 7 C-0.7525 6.1028125 -0.7525 6.1028125 -0.5 5.1875 C0.1114124 2.88655664 0.1114124 2.88655664 0 0 Z " fill="#274972" transform="translate(94,27)"/>
<path d="M0 0 C0.66 0 1.32 0 2 0 C1.42655063 2.86724686 1.1385485 3.8614515 -1 6 C1.64 6.33 4.28 6.66 7 7 C6.34 5.35 5.68 3.7 5 2 C7.88437779 3.29299694 9.87219421 4.65941363 12 7 C11.67 7.99 11.34 8.98 11 10 C5.06 9.67 -0.88 9.34 -7 9 C-5.76465298 5.29395893 -3.80264776 3.66251537 -1 1 C-0.67 0.67 -0.34 0.34 0 0 Z " fill="#1B386E" transform="translate(237,27)"/>
<path d="M0 0 C0.66 0 1.32 0 2 0 C2 1.32 2 2.64 2 4 C2.99 4 3.98 4 5 4 C5 5.65 5 7.3 5 9 C4.34 9 3.68 9 3 9 C3 8.01 3 7.02 3 6 C2.34 6 1.68 6 1 6 C1 8.31 1 10.62 1 13 C1.66 13 2.32 13 3 13 C3 13.99 3 14.98 3 16 C3.99 16.33 4.98 16.66 6 17 C5.67 17.99 5.34 18.98 5 20 C3.68 19.34 2.36 18.68 1 18 C0.67 18.99 0.34 19.98 0 21 C-0.66 21 -1.32 21 -2 21 C-1.814375 20.071875 -1.62875 19.14375 -1.4375 18.1875 C-0.75876119 14.98656229 -0.75876119 14.98656229 -2 12 C-2.12781786 9.32605036 -2.04391871 6.67904143 -2 4 C-1.34 4 -0.68 4 0 4 C0 2.68 0 1.36 0 0 Z " fill="#1F3F6D" transform="translate(116,27)"/>
<path d="M0 0 C6.27 0 12.54 0 19 0 C19 0.99 19 1.98 19 3 C18.34 3 17.68 3 17 3 C16.896875 3.78375 16.79375 4.5675 16.6875 5.375 C16 8 16 8 13 10 C13 6.89448334 13.5393715 5.64738916 15 3 C10.22237362 1.98312954 10.22237362 1.98312954 5.5625 2.9375 C5.046875 3.288125 4.53125 3.63875 4 4 C4.66 5.65 5.32 7.3 6 9 C3.5067466 8.00269864 2.22532561 7.34925469 0.75 5.0625 C0 3 0 3 0 0 Z " fill="#385F78" transform="translate(207,28)"/>
<path d="M0 0 C2.64 0 5.28 0 8 0 C8 2.64 8 5.28 8 8 C5.36 8 2.72 8 0 8 C0 5.36 0 2.72 0 0 Z " fill="#A0E0AC" transform="translate(65,43)"/>
<path d="M0 0 C3.71599191 -0.20086443 4.77208445 -0.1519437 8 2 C8 2.66 8 3.32 8 4 C6.35 4 4.7 4 3 4 C3 5.32 3 6.64 3 8 C2.01 8 1.02 8 0 8 C0 6.68 0 5.36 0 4 C-1.60875 4.4640625 -1.60875 4.4640625 -3.25 4.9375 C-5.82866222 5.66812096 -8.39512102 6.37482904 -11 7 C-11 6.34 -11 5.68 -11 5 C-11.66 4.34 -12.32 3.68 -13 3 C-11.02 3 -9.04 3 -7 3 C-6.67 2.34 -6.34 1.68 -6 1 C-6 1.66 -6 2.32 -6 3 C-4.02 3 -2.04 3 0 3 C0 2.01 0 1.02 0 0 Z " fill="#335877" transform="translate(173,41)"/>
<path d="M0 0 C2.31 0 4.62 0 7 0 C7 2.64 7 5.28 7 8 C4.69 8 2.38 8 0 8 C0 5.36 0 2.72 0 0 Z " fill="#3C637D" transform="translate(149,29)"/>
<path d="M0 0 C2.9375 0.8125 2.9375 0.8125 6 2 C6.33 2.99 6.66 3.98 7 5 C4.69 5 2.38 5 0 5 C0 7.31 0 9.62 0 12 C-0.99 12 -1.98 12 -3 12 C-3.144375 11.21625 -3.28875 10.4325 -3.4375 9.625 C-3.87798925 7.03578982 -3.87798925 7.03578982 -5 5 C-3.35 3.35 -1.7 1.7 0 0 Z " fill="#E9F7EC" transform="translate(65,38)"/>
<path d="M0 0 C2.31 0.33 4.62 0.66 7 1 C7 3.64 7 6.28 7 9 C5.68 9 4.36 9 3 9 C3 8.34 3 7.68 3 7 C3.66 7 4.32 7 5 7 C5 5.68 5 4.36 5 3 C3.68 3 2.36 3 1 3 C1 5.31 1 7.62 1 10 C0.01 10 -0.98 10 -2 10 C-2.25 3.375 -2.25 3.375 0 0 Z " fill="#2F5475" transform="translate(102,38)"/>
<path d="M0 0 C1.65 0.33 3.3 0.66 5 1 C5 1.66 5 2.32 5 3 C4.01 3 3.02 3 2 3 C2 5.64 2 8.28 2 11 C5.3 11 8.6 11 12 11 C12 11.99 12 12.98 12 14 C7.71 14 3.42 14 -1 14 C-0.34 13.34 0.32 12.68 1 12 C1.24253813 9.78927023 1.24253813 9.78927023 1.125 7.375 C1.10695312 6.55773438 1.08890625 5.74046875 1.0703125 4.8984375 C1.04710937 4.27195312 1.02390625 3.64546875 1 3 C0.34 3 -0.32 3 -1 3 C-0.67 2.01 -0.34 1.02 0 0 Z " fill="#497484" transform="translate(161,30)"/>
<path d="M0 0 C0.33 0 0.66 0 1 0 C0.67 5.28 0.34 10.56 0 16 C-4.28571429 14.57142857 -4.28571429 14.57142857 -6 12 C-5.6875 8.3125 -5.6875 8.3125 -5 5 C-4.34 5 -3.68 5 -3 5 C-3 5.99 -3 6.98 -3 8 C-2.34 7.67 -1.68 7.34 -1 7 C-0.59270772 4.67843403 -0.25561323 2.3431213 0 0 Z " fill="#659694" transform="translate(122,28)"/>
<path d="M0 0 C3.96 0 7.92 0 12 0 C12 1.32 12 2.64 12 4 C8.04 4 4.08 4 0 4 C0 2.68 0 1.36 0 0 Z " fill="#59878D" transform="translate(164,34)"/>
<path d="M0 0 C3.3 0 6.6 0 10 0 C10 0.33 10 0.66 10 1 C7.69 1.33 5.38 1.66 3 2 C3.66 3.65 4.32 5.3 5 7 C0.545 7.495 0.545 7.495 -4 8 C-2.68 5.36 -1.36 2.72 0 0 Z " fill="#91D0A8" transform="translate(193,37)"/>
<path d="M0 0 C6.6 0 13.2 0 20 0 C20 0.66 20 1.32 20 2 C16.7 2 13.4 2 10 2 C9.67 2.99 9.34 3.98 9 5 C8.67 4.01 8.34 3.02 8 2 C5.36 2 2.72 2 0 2 C0 1.34 0 0.68 0 0 Z " fill="#1A386B" transform="translate(183,35)"/>
<path d="M0 0 C3.63 0 7.26 0 11 0 C11 1.32 11 2.64 11 4 C7.37 4 3.74 4 0 4 C0 2.68 0 1.36 0 0 Z " fill="#99DAAB" transform="translate(234,41)"/>
<path d="M0 0 C0.33 0 0.66 0 1 0 C1 2.64 1 5.28 1 8 C3.31 8 5.62 8 8 8 C7.67 8.66 7.34 9.32 7 10 C4.36 10 1.72 10 -1 10 C-1.33 9.01 -1.66 8.02 -2 7 C-2.66 6.34 -3.32 5.68 -4 5 C-4 4.01 -4 3.02 -4 2 C-2.68 2 -1.36 2 0 2 C0 1.34 0 0.68 0 0 Z " fill="#6D9F99" transform="translate(148,29)"/>
<path d="M0 0 C1.4540625 0.0309375 1.4540625 0.0309375 2.9375 0.0625 C2.980221 1.72861905 2.97813832 3.39632885 2.9375 5.0625 C1.9375 6.0625 1.9375 6.0625 -1.125 6.125 C-2.5790625 6.0940625 -2.5790625 6.0940625 -4.0625 6.0625 C-4.105221 4.39638095 -4.10313832 2.72867115 -4.0625 1.0625 C-3.0625 0.0625 -3.0625 0.0625 0 0 Z " fill="#5B8A8C" transform="translate(128.0625,29.9375)"/>
<path d="M0 0 C0.66 0 1.32 0 2 0 C2 0.66 2 1.32 2 2 C3.98 2 5.96 2 8 2 C8 2.66 8 3.32 8 4 C4.17010894 5.80230168 1.21878192 6.19622241 -3 6 C-2.01 4.02 -1.02 2.04 0 0 Z " fill="#315576" transform="translate(140,27)"/>
<path d="M0 0 C1.65 0 3.3 0 5 0 C5 2.64 5 5.28 5 8 C2.03 8 -0.94 8 -4 8 C-4 7.67 -4 7.34 -4 7 C-0.535 6.505 -0.535 6.505 3 6 C1.515 3.03 1.515 3.03 0 0 Z " fill="#8BC8A5" transform="translate(210,31)"/>
<path d="M0 0 C2.88437779 1.29299694 4.87219421 2.65941363 7 5 C6.67 5.99 6.34 6.98 6 8 C2.7 7.67 -0.6 7.34 -4 7 C-4 6.67 -4 6.34 -4 6 C-2.02 6 -0.04 6 2 6 C1.34 4.02 0.68 2.04 0 0 Z " fill="#294B72" transform="translate(242,29)"/>
<path d="M0 0 C0.66 0 1.32 0 2 0 C2 0.66 2 1.32 2 2 C3.98 2 5.96 2 8 2 C8 2.66 8 3.32 8 4 C7.34 4.66 6.68 5.32 6 6 C5.01 6 4.02 6 3 6 C3 5.34 3 4.68 3 4 C1.35 4.33 -0.3 4.66 -2 5 C-1.34 3.35 -0.68 1.7 0 0 Z " fill="#294C73" transform="translate(172,27)"/>
<path d="M0 0 C1.32 0 2.64 0 4 0 C3.34 1.98 2.68 3.96 2 6 C4.31 6.33 6.62 6.66 9 7 C9 7.33 9 7.66 9 8 C6.03 8 3.06 8 0 8 C0 5.36 0 2.72 0 0 Z " fill="#90CEA8" transform="translate(218,31)"/>
<path d="M0 0 C5.61 0 11.22 0 17 0 C17 0.33 17 0.66 17 1 C14.69 1.33 12.38 1.66 10 2 C9.67 4.31 9.34 6.62 9 9 C8.67 9 8.34 9 8 9 C7.67 6.69 7.34 4.38 7 2 C4.69 1.67 2.38 1.34 0 1 C0 0.67 0 0.34 0 0 Z " fill="#1B3672" transform="translate(208,29)"/>
<path d="M0 0 C0.33 0 0.66 0 1 0 C1 2.97 1 5.94 1 9 C-2.63 8.67 -6.26 8.34 -10 8 C-10 7.67 -10 7.34 -10 7 C-7.03 7 -4.06 7 -1 7 C-0.67 4.69 -0.34 2.38 0 0 Z " fill="#18366B" transform="translate(246,39)"/>
<path d="M0 0 C0.33 0.66 0.66 1.32 1 2 C2.98 2 4.96 2 7 2 C7 2.33 7 2.66 7 3 C-0.42857143 5.14285714 -0.42857143 5.14285714 -4 6 C-4 5.34 -4 4.68 -4 4 C-4.66 3.34 -5.32 2.68 -6 2 C-4.02 2 -2.04 2 0 2 C0 1.34 0 0.68 0 0 Z " fill="#20406D" transform="translate(166,42)"/>
<path d="M0 0 C1.65 0.33 3.3 0.66 5 1 C5 1.66 5 2.32 5 3 C4.01 3 3.02 3 2 3 C2 5.97 2 8.94 2 12 C1.67 12 1.34 12 1 12 C1 9.03 1 6.06 1 3 C0.34 3 -0.32 3 -1 3 C-0.67 2.01 -0.34 1.02 0 0 Z " fill="#507C89" transform="translate(161,30)"/>
<path d="M0 0 C0.66 1.32 1.32 2.64 2 4 C-0.78407039 7.08236365 -1.80825346 7.95206337 -6 9 C-4.02 6.03 -2.04 3.06 0 0 Z " fill="#284A73" transform="translate(190,37)"/>
<path d="M0 0 C0.66 0 1.32 0 2 0 C2.33 1.32 2.66 2.64 3 4 C3.66 4 4.32 4 5 4 C4.67 2.68 4.34 1.36 4 0 C4.66 0 5.32 0 6 0 C6 1.65 6 3.3 6 5 C4.02 5 2.04 5 0 5 C0 3.35 0 1.7 0 0 Z " fill="#8AC4A9" transform="translate(124,38)"/>
<path d="M0 0 C1.98 0 3.96 0 6 0 C6 2.31 6 4.62 6 7 C4.68 7 3.36 7 2 7 C2 6.34 2 5.68 2 5 C2.66 5 3.32 5 4 5 C4 3.68 4 2.36 4 1 C2.68 0.67 1.36 0.34 0 0 Z " fill="#1C3B6A" transform="translate(103,40)"/>
<path d="M0 0 C0.33 0.66 0.66 1.32 1 2 C2.32 1.67 3.64 1.34 5 1 C5 2.32 5 3.64 5 5 C3.68 4.34 2.36 3.68 1 3 C0.67 3.99 0.34 4.98 0 6 C-0.66 6 -1.32 6 -2 6 C-1.34 4.02 -0.68 2.04 0 0 Z " fill="#294C73" transform="translate(116,42)"/>
<path d="M0 0 C3.3 0 6.6 0 10 0 C10 0.33 10 0.66 10 1 C8.865625 1.12375 7.73125 1.2475 6.5625 1.375 C4.7990625 1.684375 4.7990625 1.684375 3 2 C2.67 2.66 2.34 3.32 2 4 C1.01 4 0.02 4 -1 4 C-0.67 2.68 -0.34 1.36 0 0 Z " fill="#7EB6A0" transform="translate(193,37)"/>
<path d="M0 0 C-4.75 4 -4.75 4 -7 4 C-7 3.34 -7 2.68 -7 2 C-8.32 1.34 -9.64 0.68 -11 0 C-6.98195309 -0.84098656 -3.98196457 -1.05404945 0 0 Z " fill="#19366C" transform="translate(148,33)"/>
<path d="M0 0 C0.66 0 1.32 0 2 0 C1.60196439 2.88575819 1.20990931 3.82189513 -1.0625 5.75 C-1.701875 6.1625 -2.34125 6.575 -3 7 C-3 3.47967572 -2.29648649 2.5614657 0 0 Z " fill="#294A73" transform="translate(237,27)"/>
<path d="M0 0 C0.94875 0.350625 1.8975 0.70125 2.875 1.0625 C2.875 1.3925 2.875 1.7225 2.875 2.0625 C0.235 2.3925 -2.405 2.7225 -5.125 3.0625 C-5.125 2.0725 -5.125 1.0825 -5.125 0.0625 C-3.125 -0.9375 -3.125 -0.9375 0 0 Z " fill="#456E83" transform="translate(143.125,36.9375)"/>
<path d="M0 0 C6.75 0.75 6.75 0.75 9 3 C6.36 3 3.72 3 1 3 C0.67 2.01 0.34 1.02 0 0 Z " fill="#85BEA4" transform="translate(99,32)"/>
<path d="M0 0 C0.66 0 1.32 0 2 0 C2 0.66 2 1.32 2 2 C3.32 2.33 4.64 2.66 6 3 C5.01 3 4.02 3 3 3 C2.67 3.66 2.34 4.32 2 5 C0.68 4.34 -0.64 3.68 -2 3 C-1.34 2.01 -0.68 1.02 0 0 Z " fill="#1F3E6F" transform="translate(164,27)"/>
<path d="M0 0 C0.99 0 1.98 0 3 0 C3 0.66 3 1.32 3 2 C4.65 1.67 6.3 1.34 8 1 C8 1.66 8 2.32 8 3 C5.36 3 2.72 3 0 3 C0 2.01 0 1.02 0 0 Z " fill="#669894" transform="translate(167,30)"/>
</svg>
